<svg width="1305" height="1082" viewBox="0 0 1305 1082" fill="none" xmlns="http://www.w3.org/2000/svg">
<g clip-path="url(#clip0_425_1527)">
<path d="M1178.79 581.693C1166.95 571.826 1150.3 570.24 1136.25 576.553C1106.07 590.116 1095.82 621.264 1089.32 650.792C1084.16 674.324 1080.22 698.958 1066.87 719.013C1058.65 731.344 1010.54 777.714 993.782 793.37V939.656C995.376 936.394 1018.8 919.066 1020.49 915.823C1037.48 883.197 1061.95 855.296 1090.9 832.607C1105.71 820.998 1117.81 806.474 1123.85 788.8C1133.04 761.921 1127.08 731.347 1137.89 705.059C1146.48 684.206 1164.45 668.899 1177.5 650.497C1192.12 629.92 1199.95 599.336 1178.79 581.693Z" fill="#7CD194"/>
<path d="M1140.73 633.428C1139.98 633.254 1139.2 633.309 1138.49 633.586C1137.77 633.864 1137.16 634.35 1136.73 634.981C1113.09 669.703 1097.55 705.712 1082.59 740.652C1064.3 783.382 1046.53 824.105 993.791 873.418V884.899C1050.96 833.32 1069.82 789.559 1089.49 743.608C1104.31 709.001 1119.68 673.338 1142.93 639.192C1143.28 638.693 1143.5 638.116 1143.57 637.513C1143.64 636.909 1143.57 636.297 1143.35 635.729C1143.13 635.161 1142.78 634.655 1142.32 634.254C1141.87 633.853 1141.32 633.569 1140.73 633.428Z" fill="#61BA76"/>
<path d="M1248.58 796.377C1246.72 770.872 1225.5 763.126 1206.04 761.788C1172.37 759.452 1139.07 772.407 1111.24 791.492C1083.42 810.576 1060.27 835.604 1037.38 860.396C1026.68 871.983 1015.99 883.692 1006.5 896.259L892.863 1052.07C900.059 1054.68 1020.82 1051.43 1027.15 1055.35C1032.92 1058.9 1039.13 1061.7 1045.61 1063.67C1095.41 1079.03 1147.58 1046.08 1158.71 995.17C1160.22 988.192 1161.49 981.153 1162.59 974.235C1168.05 939.744 1172.2 902.989 1193.73 875.494C1209.75 855.035 1233.97 841.876 1244.89 816.902C1247.68 810.464 1249.09 803.373 1248.58 796.377Z" fill="#61BA76"/>
<path d="M1011.98 994.199C1011.79 994.144 1011.59 994.073 1011.41 993.987C1010.58 993.589 1009.94 992.877 1009.63 992.007C1009.32 991.137 1009.37 990.181 1009.77 989.348C1064.45 874.85 1180.17 825.128 1181.33 824.642C1182.18 824.301 1183.13 824.307 1183.97 824.658C1184.82 825.01 1185.49 825.679 1185.84 826.52C1186.2 827.362 1186.21 828.31 1185.87 829.158C1185.53 830.007 1184.87 830.688 1184.04 831.056C1182.9 831.536 1069.56 880.3 1016.05 992.343C1015.7 993.081 1015.1 993.672 1014.35 994.011C1013.61 994.351 1012.77 994.417 1011.98 994.199Z" fill="#7CD194"/>
<path d="M1039.79 326.113L1040.06 403.622H1047.92L1047.65 326.113H1039.79Z" fill="#FEB630"/>
<path d="M1055.79 410.592C1055.79 413.756 1054.53 416.79 1052.29 419.027C1050.05 421.265 1047.02 422.522 1043.85 422.522C1040.69 422.522 1037.65 421.265 1035.42 419.027C1033.18 416.79 1031.92 413.756 1031.92 410.592C1031.92 404.002 1037.26 390.476 1043.85 390.476C1050.45 390.476 1055.79 404.002 1055.79 410.592Z" fill="#FEB630"/>
<path d="M1258.66 405.473L1258.34 332.473L1068.72 333.401L1069.04 404.426C1068.86 440.705 1258.48 441.752 1258.66 405.473Z" fill="#29275C"/>
<path d="M1294.03 318.285L1170.35 290.948C1165.74 289.929 1160.96 289.946 1156.36 291L1033.06 319.217C1025.12 321.037 1024.69 332.169 1032.45 334.594L1154.21 372.559C1160.47 374.51 1167.18 374.486 1173.42 372.489L1294.73 333.671C1302.5 331.177 1301.98 320.042 1294.03 318.285Z" fill="#393982"/>
<path d="M1163.57 337.704C1174.82 337.704 1183.94 333.653 1183.94 328.656C1183.94 323.659 1174.82 319.608 1163.57 319.608C1152.33 319.608 1143.21 323.659 1143.21 328.656C1143.21 333.653 1152.33 337.704 1163.57 337.704Z" fill="#29275C"/>
<path d="M831.115 1045.37C876.835 1045.37 954.823 1008.2 954.823 962.524V130.351C954.823 84.6695 917.618 47.52 871.897 47.52H417.979C372.255 47.52 335.054 84.6816 335.054 130.351V962.524C335.054 1008.2 372.255 1045.37 417.979 1045.37H831.115Z" fill="#38297A"/>
<path d="M921.169 1045.37C966.889 1045.37 1004.09 1008.2 1004.09 962.524V130.351C1004.09 84.6695 966.889 47.52 921.169 47.52H467.25C421.527 47.52 384.325 84.6816 384.325 130.351V962.524C384.325 1008.2 421.527 1045.37 467.25 1045.37H921.169Z" fill="#20154F"/>
<path d="M975.849 110.077C971.084 97.2358 961.952 86.4799 950.052 79.6936C941.783 74.9348 932.448 72.3316 922.908 72.1235C922.339 72.0755 921.768 72.0563 921.197 72.0659H817.832C816.961 72.0536 816.09 72.1278 815.234 72.2874C811.024 72.9078 807.177 75.016 804.389 78.2296C801.601 81.4432 800.057 85.5493 800.038 89.8032C800.043 91.7637 799.274 93.647 797.897 95.0436C796.521 96.4401 794.649 97.237 792.688 97.261H592.41C590.449 97.2362 588.577 96.4391 587.201 95.0427C585.825 93.6464 585.055 91.7635 585.059 89.8032C585.042 85.0952 583.161 80.5856 579.826 77.2614C576.491 73.9372 571.975 72.069 567.266 72.0659H467.284C459.072 72.0316 450.949 73.7649 443.467 77.148C433.171 81.731 424.428 89.2031 418.297 98.6573C412.166 108.111 408.912 119.141 408.93 130.408V962.524C408.957 975.364 413.208 987.838 421.027 998.024C428.846 1008.21 439.799 1015.54 452.198 1018.89H452.253C457.159 1020.18 462.211 1020.83 467.284 1020.82H921.142C953.357 1020.82 979.497 994.637 979.497 962.539V130.354C979.515 123.43 978.279 116.561 975.849 110.077Z" fill="white"/>
<path d="M979.497 174.224V130.354C979.517 123.431 978.283 116.561 975.855 110.077C971.091 97.2358 961.958 86.4799 950.059 79.6936C941.787 74.9338 932.45 72.3306 922.909 72.1235C922.339 72.0755 921.768 72.0563 921.197 72.0659H817.832C816.961 72.0535 816.09 72.1277 815.234 72.2874C811.024 72.9078 807.177 75.016 804.389 78.2296C801.601 81.4432 800.057 85.5493 800.038 89.8032C800.042 91.7635 799.273 93.6464 797.896 95.0427C796.52 96.4391 794.648 97.2362 792.688 97.261H592.41C590.449 97.2362 588.577 96.4391 587.201 95.0427C585.825 93.6464 585.055 91.7635 585.059 89.8032C585.042 85.0952 583.161 80.5856 579.826 77.2614C576.491 73.9372 571.975 72.069 567.266 72.0659H467.284C459.072 72.0316 450.949 73.7649 443.467 77.148C433.171 81.731 424.428 89.2031 418.297 98.6573C412.166 108.111 408.912 119.141 408.93 130.408V174.224H979.497Z" fill="#EBF2FF"/>
<path d="M731.152 69.8508H653.96C653.414 69.8504 652.873 69.9576 652.369 70.1661C651.864 70.3747 651.406 70.6806 651.02 71.0663C650.634 71.4521 650.327 71.9101 650.118 72.4143C649.909 72.9184 649.802 73.4588 649.802 74.0045V74.047C649.802 75.1494 650.24 76.2067 651.019 76.9862C651.799 77.7657 652.857 78.2037 653.96 78.2037H731.152C732.254 78.2029 733.311 77.7646 734.09 76.9851C734.869 76.2057 735.307 75.1489 735.307 74.047V74.0045C735.307 73.4589 735.2 72.9186 734.991 72.4145C734.782 71.9103 734.476 71.4523 734.091 71.0665C733.705 70.6807 733.246 70.3748 732.742 70.1662C732.238 69.9576 731.697 69.8504 731.152 69.8508Z" fill="white"/>
<path d="M524.154 225.776H473.618C468.663 225.776 464.646 229.791 464.646 234.745V284.78C464.646 289.733 468.663 293.749 473.618 293.749H524.154C529.109 293.749 533.126 289.733 533.126 284.78V234.745C533.126 229.791 529.109 225.776 524.154 225.776Z" fill="#5CB8FC"/>
<path d="M664.421 235.491H570.27V248.304H664.421V235.491Z" fill="#D1DCF8"/>
<path d="M626.357 270.841H570.27V283.654H626.357V270.841Z" fill="#D1DCF8"/>
<path d="M524.154 335.622H473.618C468.663 335.622 464.646 339.638 464.646 344.591V394.626C464.646 399.58 468.663 403.595 473.618 403.595H524.154C529.109 403.595 533.126 399.58 533.126 394.626V344.591C533.126 339.638 529.109 335.622 524.154 335.622Z" fill="#5CB8FC"/>
<path d="M664.421 345.337H570.27V358.15H664.421V345.337Z" fill="#D1DCF8"/>
<path d="M626.357 380.688H570.27V393.501H626.357V380.688Z" fill="#D1DCF8"/>
<path d="M524.154 445.472H473.618C468.663 445.472 464.646 449.487 464.646 454.44V504.476C464.646 509.429 468.663 513.444 473.618 513.444H524.154C529.109 513.444 533.126 509.429 533.126 504.476V454.44C533.126 449.487 529.109 445.472 524.154 445.472Z" fill="#5CB8FC"/>
<path d="M664.421 455.184H570.27V467.997H664.421V455.184Z" fill="#D1DCF8"/>
<path d="M626.357 490.534H570.27V503.347H626.357V490.534Z" fill="#D1DCF8"/>
<path d="M783.513 225.776H732.976C728.021 225.776 724.005 229.791 724.005 234.745V284.78C724.005 289.733 728.021 293.749 732.976 293.749H783.513C788.467 293.749 792.484 289.733 792.484 284.78V234.745C792.484 229.791 788.467 225.776 783.513 225.776Z" fill="#5CB8FC"/>
<path d="M923.782 235.491H829.631V248.304H923.782V235.491Z" fill="#D1DCF8"/>
<path d="M885.719 270.841H829.631V283.654H885.719V270.841Z" fill="#D1DCF8"/>
<path d="M783.513 335.622H732.976C728.021 335.622 724.005 339.638 724.005 344.591V394.626C724.005 399.58 728.021 403.595 732.976 403.595H783.513C788.467 403.595 792.484 399.58 792.484 394.626V344.591C792.484 339.638 788.467 335.622 783.513 335.622Z" fill="#5CB8FC"/>
<path d="M923.782 345.337H829.631V358.15H923.782V345.337Z" fill="#D1DCF8"/>
<path d="M885.719 380.688H829.631V393.501H885.719V380.688Z" fill="#D1DCF8"/>
<path d="M783.513 445.472H732.976C728.021 445.472 724.005 449.487 724.005 454.44V504.476C724.005 509.429 728.021 513.444 732.976 513.444H783.513C788.467 513.444 792.484 509.429 792.484 504.476V454.44C792.484 449.487 788.467 445.472 783.513 445.472Z" fill="#5CB8FC"/>
<path d="M754.919 276.901C754.249 276.901 753.586 276.769 752.967 276.513C752.349 276.256 751.787 275.881 751.313 275.408L740.764 264.867C740.29 264.394 739.915 263.832 739.659 263.214C739.402 262.595 739.271 261.932 739.271 261.263C739.271 260.593 739.402 259.931 739.659 259.312C739.915 258.694 740.29 258.132 740.764 257.658C741.237 257.185 741.799 256.809 742.418 256.553C743.037 256.297 743.7 256.165 744.369 256.165C745.039 256.165 745.702 256.297 746.321 256.553C746.939 256.809 747.501 257.185 747.975 257.658L754.266 263.948L767.972 244.763C768.757 243.664 769.948 242.921 771.281 242.699C772.614 242.477 773.981 242.793 775.081 243.579C776.181 244.364 776.924 245.554 777.146 246.887C777.368 248.22 777.052 249.586 776.266 250.686L759.064 274.765C758.636 275.368 758.08 275.871 757.437 276.238C756.794 276.605 756.078 276.827 755.34 276.888C755.198 276.894 755.058 276.901 754.919 276.901Z" fill="white"/>
<path d="M754.918 386.747C753.566 386.745 752.27 386.209 751.313 385.254L740.764 374.71C739.836 373.749 739.323 372.461 739.335 371.125C739.347 369.789 739.884 368.511 740.829 367.567C741.774 366.622 743.053 366.086 744.389 366.075C745.726 366.063 747.013 366.576 747.975 367.504L754.266 373.794L767.971 354.61C768.36 354.065 768.853 353.603 769.421 353.248C769.988 352.894 770.621 352.655 771.281 352.545C771.941 352.435 772.616 352.456 773.268 352.607C773.92 352.758 774.536 353.036 775.081 353.425C775.625 353.814 776.088 354.306 776.442 354.874C776.797 355.441 777.036 356.073 777.146 356.733C777.256 357.393 777.235 358.068 777.084 358.72C776.933 359.372 776.655 359.988 776.266 360.532L759.064 384.611C758.635 385.214 758.08 385.717 757.437 386.084C756.794 386.451 756.078 386.673 755.34 386.735C755.198 386.741 755.058 386.747 754.918 386.747Z" fill="white"/>
<path d="M754.918 496.593C753.566 496.592 752.27 496.055 751.313 495.1L740.764 484.557C739.836 483.595 739.323 482.308 739.335 480.972C739.347 479.636 739.884 478.358 740.829 477.413C741.774 476.469 743.053 475.933 744.389 475.921C745.726 475.91 747.013 476.423 747.975 477.351L754.266 483.641L767.971 464.456C768.757 463.356 769.947 462.614 771.281 462.392C772.614 462.169 773.981 462.486 775.081 463.271C776.181 464.057 776.923 465.247 777.146 466.58C777.368 467.912 777.051 469.279 776.266 470.379L759.064 494.457C758.635 495.061 758.08 495.564 757.437 495.931C756.794 496.297 756.078 496.519 755.34 496.581C755.198 496.587 755.058 496.593 754.918 496.593Z" fill="white"/>
<path d="M923.782 455.184H829.631V467.997H923.782V455.184Z" fill="#D1DCF8"/>
<path d="M885.719 490.534H829.631V503.347H885.719V490.534Z" fill="#D1DCF8"/>
<path d="M524.154 613.624H473.618C468.663 613.624 464.646 617.639 464.646 622.593V672.628C464.646 677.581 468.663 681.597 473.618 681.597H524.154C529.109 681.597 533.126 677.581 533.126 672.628V622.593C533.126 617.639 529.109 613.624 524.154 613.624Z" fill="#EE984F"/>
<path d="M923.779 623.336H570.27V636.149H923.779V623.336Z" fill="#D1DCF8"/>
<path d="M786.942 658.687H570.27V671.499H786.942V658.687Z" fill="#D1DCF8"/>
<path d="M524.154 722.214H473.618C468.663 722.214 464.646 726.23 464.646 731.183V781.218C464.646 786.172 468.663 790.187 473.618 790.187H524.154C529.109 790.187 533.126 786.172 533.126 781.218V731.183C533.126 726.23 529.109 722.214 524.154 722.214Z" fill="#EE984F"/>
<path d="M923.779 731.929H570.27V744.742H923.779V731.929Z" fill="#D1DCF8"/>
<path d="M786.942 767.28H570.27V780.093H786.942V767.28Z" fill="#D1DCF8"/>
<path d="M524.154 830.808H473.618C468.663 830.808 464.646 834.823 464.646 839.776V889.812C464.646 894.765 468.663 898.78 473.618 898.78H524.154C529.109 898.78 533.126 894.765 533.126 889.812V839.776C533.126 834.823 529.109 830.808 524.154 830.808Z" fill="#EE984F"/>
<path d="M923.779 840.52H570.27V853.333H923.779V840.52Z" fill="#D1DCF8"/>
<path d="M786.942 875.87H570.27V888.683H786.942V875.87Z" fill="#D1DCF8"/>
<path d="M493.168 333.856C487.46 348.42 455.518 351.078 455.518 351.078C455.518 351.078 412.176 442.741 363.782 442.856C330.529 442.935 299.634 375.966 299.634 375.966L338.623 362.92C341.658 364.986 368.134 396.295 368.134 396.295L443.017 324.806C443.017 324.806 451.876 286.828 458.076 293.124C464.079 299.125 458.568 311.474 458.125 312.508C459.797 311.031 497.098 278.612 499.608 287.368C502.218 296.273 480.07 310.873 480.07 310.873C480.07 310.873 498.862 319.344 493.168 333.856Z" fill="#F2C3B3"/>
<path d="M218.594 314.787C182.36 318.337 174.588 265.781 174.588 265.781C175.816 259.49 176.615 253.123 176.979 246.723C177.307 240.953 177.246 235.167 176.794 229.405L231.641 248.007C231.624 249.479 231.705 250.951 231.883 252.412C232.527 258.917 235.65 262.859 237.695 265.781C240.123 269.261 241.495 271.078 241.495 271.078C241.495 271.078 254.83 311.237 218.594 314.787Z" fill="#F4A998"/>
<path d="M157.492 182.926C160.299 183.063 163.064 182.203 165.298 180.498C167.764 178.637 169.399 175.881 169.85 172.825C172.791 152.211 186.096 151.714 201.64 146.24C222.815 138.783 246.359 142.417 253.91 154.193C269.015 177.749 263.622 256.648 223.058 264.121C177.923 272.431 168.451 230.364 167 221.792C166.833 220.745 166.526 219.725 166.09 218.758C164.008 214.228 157.71 200.554 153.298 191.272C152.538 189.677 152.145 187.933 152.147 186.166V182.637L157.492 182.926Z" fill="#F2C3B3"/>
<path d="M251.334 191.442C244.757 191.712 239.47 196.991 238.101 203.882C236.894 203.171 235.508 202.824 234.109 202.881C232.709 202.938 231.356 203.397 230.211 204.204C228.284 197.456 222.584 192.628 216.011 192.895C208.144 193.22 202.05 200.681 202.399 209.528C202.748 218.376 209.461 225.306 217.328 224.981C225.194 224.656 231.288 217.196 230.933 208.36C230.933 207.996 230.833 207.659 230.796 207.304C231.682 206.34 232.915 205.766 234.224 205.709C235.533 205.652 236.81 206.117 237.777 207.001C237.777 207.362 237.71 207.708 237.725 208.072C238.086 216.91 244.784 223.849 252.654 223.522C260.523 223.194 266.614 215.739 266.265 206.901C265.916 198.063 259.2 191.121 251.334 191.442ZM217.215 222.017C210.797 222.278 205.337 216.625 205.039 209.416C204.742 202.207 209.722 196.112 216.141 195.848C222.56 195.584 228.017 201.239 228.314 208.46C228.611 215.682 223.628 221.753 217.215 222.017ZM252.529 220.566C246.11 220.83 240.648 215.175 240.353 207.966C240.059 200.757 245.036 194.664 251.455 194.4C257.874 194.136 263.333 199.792 263.631 207.013C263.928 214.234 258.945 220.318 252.529 220.566Z" fill="#20154F"/>
<path d="M258.393 167.919C241.911 177.267 217.219 183.393 182.257 174.412C182.257 174.412 178.831 185.541 174.263 196.097C170.269 190.605 163.775 183.684 159.35 193.742C156.64 199.88 163.987 207.013 167.914 209.082C167.699 225.206 176.333 245.677 176.476 246.32C175.335 245.677 155.711 232.06 146.364 205.514C142.66 204.871 139.254 203.074 136.634 200.379C134.014 197.685 132.313 194.231 131.774 190.511C131.235 186.792 131.886 182.998 133.635 179.671C135.383 176.344 138.139 173.655 141.508 171.988C138.496 169.757 136.266 166.633 135.134 163.062C134.002 159.49 134.026 155.652 135.203 152.095C136.38 148.537 138.65 145.442 141.689 143.25C144.728 141.057 148.382 139.879 152.13 139.884C153.328 139.893 154.522 140.012 155.699 140.239C154.716 137.26 154.454 134.091 154.935 130.991C155.415 127.892 156.625 124.95 158.463 122.409C160.302 119.868 162.718 117.799 165.512 116.372C168.306 114.946 171.399 114.202 174.536 114.203C178.367 114.182 182.118 115.299 185.313 117.413C186.821 114.724 188.932 112.42 191.481 110.682C194.029 108.945 196.945 107.822 200.001 107.4C203.056 106.979 206.168 107.27 209.091 108.253C212.015 109.235 214.671 110.882 216.852 113.062C220.846 109.352 226.26 107.213 232.193 107.213C235.238 107.212 238.254 107.812 241.068 108.977C243.881 110.142 246.438 111.849 248.591 114.002C250.745 116.155 252.453 118.711 253.618 121.524C254.783 124.337 255.383 127.352 255.383 130.396C255.41 132.799 255.024 135.188 254.242 137.46C254.562 137.61 254.897 137.728 255.24 137.815C268.955 141.953 270.879 160.786 258.393 167.919Z" fill="#20154F"/>
<path d="M298.754 599.097L327.067 330.665L302.721 297.739L237.343 276.7C233.216 290.982 225.951 302.875 212.91 310.379C193.362 306.613 181.781 295.348 178.048 276.7L109.56 297.739L85.2139 330.665L113.505 599.097C175.259 618.466 237.009 618.466 298.754 599.097Z" fill="#FE4C40"/>
<path d="M237.689 265.781C234.454 283.855 226.111 298.67 212.87 310.351L246.026 324.69C256.427 310.973 261.698 297.544 259.683 284.519L237.689 265.781Z" fill="#EA241F"/>
<path d="M212.87 310.351L186.451 324.566C171.247 318.58 160.682 304.04 152.864 284.437L174.582 265.781C181.966 284.034 195.24 298.573 212.87 310.351Z" fill="#EA241F"/>
<path d="M302.721 297.739C302.721 297.739 338.311 314.999 359.027 372.629C352.79 391.929 334.111 409.038 311.155 416.199C311.161 416.193 269.695 348.62 302.721 297.739Z" fill="#FE4C40"/>
<path d="M170.864 465.436L159.331 465.609C159.331 465.609 166.748 451.397 173.856 451.604C180.742 451.819 172.078 464.435 170.864 465.436Z" fill="#F2C3B3"/>
<path d="M315.036 373.797L282.632 521.718C282.464 522.48 282.042 523.163 281.436 523.654C280.829 524.146 280.074 524.417 279.294 524.425L162.83 525.459C162.308 525.458 161.792 525.34 161.322 525.113C160.851 524.887 160.437 524.557 160.11 524.15C159.784 523.743 159.552 523.267 159.433 522.759C159.314 522.25 159.31 521.722 159.422 521.212L191.804 373.351C191.972 372.589 192.394 371.906 193 371.414C193.606 370.923 194.362 370.651 195.143 370.645L311.603 369.61C312.124 369.602 312.64 369.712 313.112 369.931C313.584 370.15 314.001 370.473 314.331 370.875C314.661 371.278 314.896 371.75 315.018 372.256C315.14 372.762 315.146 373.289 315.036 373.797Z" fill="#20154F"/>
<path d="M238.311 434.303C231.173 436.017 225.383 443.196 225.383 450.332C225.383 457.468 231.173 461.862 238.311 460.154C245.449 458.445 251.243 451.261 251.243 444.121C251.243 436.982 245.452 432.586 238.311 434.303Z" fill="#38297A"/>
<path d="M199.107 469.016C200.712 496.42 163.659 487.548 163.659 487.548C163.659 487.548 72.1546 494.011 43.0409 466.006V465.943C29.2929 452.851 30.6313 433.299 36.9863 415.334C43.3596 397.548 53.7693 375.824 53.7693 375.824C60.5977 389.644 67.5901 397.87 94.8828 411.283L79.7418 444.143L158.421 465.278L168.822 465.436C170.172 464.717 198.075 452.065 199.107 469.016Z" fill="#F2C3B3"/>
<path d="M109.56 297.739C109.56 297.739 73.9575 314.999 53.2354 372.629C59.472 391.929 78.1518 409.038 101.108 416.199C101.108 416.193 142.573 348.62 109.56 297.739Z" fill="#FE4C40"/>
<path d="M248.9 213.904C250.796 213.904 252.333 211.354 252.333 208.209C252.333 205.063 250.796 202.514 248.9 202.514C247.005 202.514 245.468 205.063 245.468 208.209C245.468 211.354 247.005 213.904 248.9 213.904Z" fill="#20154F"/>
<path d="M215.273 214.392C217.169 214.392 218.706 211.842 218.706 208.697C218.706 205.552 217.169 203.002 215.273 203.002C213.378 203.002 211.841 205.552 211.841 208.697C211.841 211.842 213.378 214.392 215.273 214.392Z" fill="#20154F"/>
<path d="M241.152 187.595C241.039 187.471 240.953 187.326 240.897 187.168C240.841 187.01 240.816 186.843 240.825 186.676C240.834 186.508 240.875 186.345 240.948 186.194C241.02 186.043 241.121 185.907 241.246 185.796C244.666 182.716 249.674 182.294 253.716 184.737C254.006 184.912 254.213 185.195 254.294 185.524C254.374 185.852 254.321 186.2 254.146 186.489C253.97 186.778 253.687 186.986 253.358 187.066C253.03 187.147 252.682 187.094 252.393 186.918C249.264 185.022 245.561 185.328 242.948 187.686C242.825 187.798 242.68 187.885 242.523 187.941C242.365 187.998 242.198 188.022 242.031 188.014C241.864 188.005 241.701 187.964 241.55 187.892C241.399 187.82 241.264 187.719 241.152 187.595Z" fill="#20154F"/>
<path d="M213.656 239.596C213.656 251.311 233.098 259.318 237.35 246.32C231.055 249.469 225.492 247.928 213.656 239.596Z" fill="#20154F"/>
<path d="M226.706 236.398C226.547 236.347 226.399 236.264 226.272 236.156C226.144 236.047 226.039 235.914 225.963 235.765C225.809 235.464 225.781 235.114 225.885 234.792C225.99 234.47 226.217 234.203 226.519 234.049C226.82 233.895 227.17 233.867 227.492 233.971C232.196 235.506 235.538 235.582 236.682 234.211C237.638 233.055 237.207 230.549 235.523 227.511C232.661 222.353 231.96 214.34 231.929 214.004C231.915 213.837 231.933 213.669 231.984 213.51C232.034 213.35 232.115 213.202 232.223 213.074C232.331 212.947 232.463 212.841 232.611 212.764C232.76 212.687 232.922 212.64 233.089 212.626C233.257 212.603 233.428 212.616 233.591 212.663C233.755 212.71 233.906 212.791 234.036 212.901C234.166 213.011 234.271 213.146 234.345 213.299C234.42 213.452 234.461 213.618 234.466 213.788C234.466 213.864 235.158 221.589 237.753 226.277C240.029 230.388 240.348 233.783 238.648 235.834C236.114 238.898 230.485 237.636 226.706 236.398Z" fill="#20154F"/>
<path d="M219.519 189.646C218.186 188.55 216.56 187.87 214.842 187.691C213.125 187.512 211.394 187.841 209.862 188.639C209.564 188.781 209.223 188.802 208.909 188.698C208.596 188.593 208.335 188.372 208.181 188.079C208.028 187.787 207.994 187.446 208.086 187.129C208.178 186.812 208.389 186.543 208.676 186.378C210.649 185.353 212.879 184.929 215.091 185.158C217.303 185.388 219.399 186.262 221.119 187.671C221.381 187.884 221.547 188.193 221.581 188.53C221.616 188.866 221.515 189.202 221.301 189.464C221.087 189.726 220.778 189.892 220.442 189.926C220.105 189.961 219.769 189.86 219.507 189.646H219.519Z" fill="#20154F"/>
<path d="M275.446 959.359V1014.12C275.446 1024.99 247.376 1024.99 247.376 1014.12L238.323 959.359H275.446Z" fill="#F2C3B3"/>
<path d="M157.119 956.016L148.788 1010.14C147.137 1020.88 119.392 1016.61 121.046 1005.87L120.439 950.372L157.119 956.016Z" fill="#F2C3B3"/>
<path d="M118.276 605.274C116.758 687.422 111.557 983.874 111.557 983.874C125.517 991.12 141.383 993.098 160.154 987.154L204.248 734.172L233.161 983.271C253.465 993.204 270.988 993.028 285.808 983.01L296.044 605.265L118.276 605.274Z" fill="#022E4F"/>
<path d="M223.82 605.274H118.276C116.758 687.422 111.557 983.874 111.557 983.874C125.517 991.12 141.383 993.098 160.154 987.154L204.248 734.172C217.966 681.588 223.562 652.87 223.82 605.274Z" fill="#1C587E"/>
<path d="M295.122 590.344H117.271C113.462 590.344 110.373 593.431 110.373 597.24V608.745C110.373 612.554 113.462 615.642 117.271 615.642H295.122C298.931 615.642 302.02 612.554 302.02 608.745V597.24C302.02 593.431 298.931 590.344 295.122 590.344Z" fill="#20154F"/>
<path d="M238.311 592.771V613.151C238.319 613.974 238.163 614.79 237.852 615.552C237.541 616.314 237.08 617.007 236.498 617.589C235.916 618.171 235.224 618.631 234.461 618.942C233.699 619.253 232.883 619.409 232.059 619.401H194.536C193.714 619.404 192.9 619.244 192.14 618.931C191.38 618.618 190.69 618.158 190.109 617.577C189.528 616.996 189.068 616.306 188.754 615.546C188.441 614.786 188.281 613.972 188.284 613.151V592.771C188.292 591.117 188.954 589.533 190.125 588.364C191.296 587.196 192.882 586.538 194.536 586.533H232.053C232.875 586.529 233.688 586.688 234.448 587C235.208 587.312 235.898 587.771 236.48 588.351C237.062 588.93 237.523 589.619 237.837 590.378C238.151 591.137 238.312 591.95 238.311 592.771Z" fill="#1C587E"/>
<path d="M113.921 994.242C115.997 992.546 118.473 991.511 120.066 993.671C125.672 1001.19 141.371 1012.91 148.248 997.039C149.447 994.269 153.76 994.897 155.314 997.488C160.145 1005.53 174.245 1017.71 183.065 1020.82C183.065 1020.82 203.541 1027.64 211.841 1024.85C220.142 1022.06 230.327 1050.8 142.376 1044.45C110.51 1042.15 102.962 1034.98 102.698 1025.16C102.613 1021.99 112.133 995.701 113.921 994.242Z" fill="#20154F"/>
<path d="M143.012 1037.63C193.34 1041.27 211.528 1033.41 216.329 1026.55C220.184 1032.39 212.253 1049.5 142.375 1044.45C111.419 1042.22 97.6531 1037.06 102.697 1025.16C105.073 1032.33 118.77 1035.88 143.012 1037.63Z" fill="#FE4C40"/>
<path d="M238.803 994.242C240.879 992.546 243.355 991.511 244.948 993.671C250.554 1001.19 266.253 1012.91 273.13 997.039C274.344 994.269 278.642 994.897 280.195 997.488C285.027 1005.53 299.127 1017.71 307.946 1020.82C307.946 1020.82 328.423 1027.64 336.723 1024.85C345.024 1022.06 355.209 1050.8 267.258 1044.45C235.391 1042.15 227.844 1034.98 227.58 1025.16C227.495 1021.99 237.024 995.701 238.803 994.242Z" fill="#20154F"/>
<path d="M267.895 1037.63C318.223 1041.27 336.411 1033.41 341.212 1026.55C345.066 1032.39 337.136 1049.5 267.258 1044.45C236.302 1042.22 222.536 1037.06 227.58 1025.16C229.956 1032.33 243.653 1035.88 267.895 1037.63Z" fill="#FE4C40"/>
<path d="M1286.7 1045.37H18.3003C8.19335 1045.37 0 1053.56 0 1063.67V1063.7C0 1073.81 8.19335 1082 18.3003 1082H1286.7C1296.81 1082 1305 1073.81 1305 1063.7V1063.67C1305 1053.56 1296.81 1045.37 1286.7 1045.37Z" fill="#D1DCF8"/>
</g>
<defs>
<clipPath id="clip0_425_1527">
<rect width="1305" height="1082" fill="white"/>
</clipPath>
</defs>
</svg>
