<svg width="449" height="366" viewBox="0 0 449 366" fill="none" xmlns="http://www.w3.org/2000/svg">
<g clip-path="url(#clip0_586_9)">
<path d="M291.372 313.413L290.576 310.873C330.045 298.593 368.21 282.456 404.518 262.698L405.792 265.038C369.333 284.881 331.008 301.085 291.372 313.413Z" fill="#E5BAB3"/>
<path d="M377.469 278.062C385.284 269.509 393.597 261.921 404.707 255.289C415.818 248.657 429.766 243.021 449.01 237.634C449.01 237.634 447.148 239.944 443.714 243.548C439.089 248.37 434.096 252.825 428.78 256.872C415.967 266.73 397.48 276.828 377.469 278.062Z" fill="#899E32"/>
<path d="M369.773 281.717C378.365 276.479 382.636 265.217 384.786 254.253C386.936 243.29 387.096 232.535 388.091 227.825C382.299 233.123 377.156 239.09 372.769 245.6C366.119 255.916 360.942 269.22 369.773 281.717Z" fill="#E5BAB3"/>
<path d="M367.961 282.902C380.844 279.915 393.368 282.314 404.707 286.049C416.047 289.783 426.022 294.802 432.981 297.301C430.338 298.16 427.649 298.872 424.927 299.432C418.684 300.813 412.315 301.55 405.922 301.633C391.367 301.812 374.99 297.56 367.961 282.902Z" fill="#899E32"/>
<path d="M345.7 292.282C357.916 287.244 361.848 273.362 362.416 261.134C362.718 253.351 362.049 245.56 360.425 237.942C358.937 239.512 357.531 241.157 356.213 242.871C353.055 246.826 350.257 251.055 347.851 255.508C342.385 265.794 338.164 279.287 345.7 292.282Z" fill="#E5BAB3"/>
<path d="M346.507 291.944C357.727 290.778 370.251 294.094 381.431 300.169C392.611 306.243 402.437 315.315 407.316 326.189C401.596 326.228 395.89 325.61 390.311 324.346C380.973 322.275 370.042 317.774 363.581 309.051C357.119 300.328 352.898 296.006 350.24 293.945C347.582 291.884 346.507 291.944 346.507 291.944Z" fill="#899E32"/>
<path d="M327.909 299.382C335.515 296.514 340.384 287.234 340.434 276.718C340.426 270.874 339.106 265.107 336.569 259.843C334.032 254.579 330.345 249.953 325.779 246.307C324.513 250.084 323.662 253.987 323.24 257.948C322.533 264.679 322.852 273.303 327.67 280.612C332.359 287.672 332.479 292.362 331.354 295.319C330.712 297.033 329.494 298.469 327.909 299.382Z" fill="#E5BAB3"/>
<path d="M275.941 302.19C275.941 302.19 260.211 215.209 284.761 204.225C300.432 197.205 304.115 227.985 304.115 227.985C304.115 227.985 315.335 163.089 340.443 156.477C341.992 156.061 343.625 156.073 345.168 156.512C346.71 156.95 348.106 157.798 349.204 158.967C353.525 163.557 359.309 174.411 355.417 198.37C355.417 198.37 391.257 138.334 413.209 154.336C435.162 170.339 382.347 226.391 382.347 226.391C382.347 226.391 415.041 220.924 422.757 230.514C430.472 240.103 406.011 266.71 369.564 283.957C369.564 283.957 402.467 286.158 398.883 300.886C395.299 315.613 312.02 315.992 312.02 315.992L275.941 302.19Z" fill="#AFCB49"/>
<path d="M406.37 162.372C406.37 162.372 333.943 241.388 303.309 303.684" stroke="#899E32" stroke-miterlimit="10"/>
<path d="M341.569 167.939C341.569 167.939 313.304 195.92 325.391 265.675C325.391 265.675 364.516 272.098 417.62 237.922" stroke="#899E32" stroke-miterlimit="10"/>
<path d="M156.124 263.355L155.627 265.685C119.46 258.039 82.6294 253.973 45.6665 253.546V251.166C82.7969 251.588 119.795 255.67 156.124 263.355Z" fill="#AFCB49"/>
<path d="M73.4927 253.397C63.4507 256.928 52.9299 258.909 42.2917 259.272C30.7033 259.601 17.4025 257.898 0.0100098 253.706C0.0100098 253.706 2.46906 252.71 6.72012 251.395C12.4355 249.655 18.277 248.36 24.1923 247.522C38.4687 245.431 57.3347 245.59 73.4927 253.397Z" fill="#899E32"/>
<path d="M81.0887 253.875C72.1286 254.213 63.8455 261.134 57.3843 268.752C50.9231 276.369 46.1244 284.684 43.2373 287.931C50.0722 286.322 56.6925 283.908 62.9595 280.741C72.6762 275.613 82.5223 267.487 81.0887 253.875Z" fill="#899E32"/>
<path d="M83.0201 253.745C71.6707 250.439 62.9296 243.11 55.7217 235.234C48.5138 227.357 42.9088 219.092 38.5681 214.103C41.0037 214.589 43.4101 215.21 45.776 215.965C51.2422 217.61 56.5262 219.809 61.5458 222.528C73.0147 228.771 83.936 239.227 83.0201 253.745Z" fill="#899E32"/>
<path d="M104.495 256.155C92.7668 254.741 83.5877 263.852 77.8433 273.153C74.2104 279.098 71.3279 285.469 69.2615 292.123C71.1096 291.553 72.9273 290.888 74.7072 290.131C78.9001 288.428 82.9317 286.352 86.7536 283.927C95.5145 278.291 104.694 269.598 104.495 256.155Z" fill="#899E32"/>
<path d="M103.718 256.065C94.4494 252.082 86.1165 244.007 80.0436 234.387C73.9706 224.768 70.2671 213.386 71.193 202.761C75.6727 205.229 79.8549 208.203 83.6575 211.624C90.049 217.32 96.5998 225.565 97.8443 235.244C99.0887 244.923 100.483 250.091 101.657 252.859C102.832 255.627 103.718 256.065 103.718 256.065Z" fill="#E5BAB3"/>
<path d="M121.479 258.376C114.291 257.3 106.436 262.419 101.806 270.594C99.2591 275.159 97.7709 280.238 97.4521 285.455C97.1333 290.673 97.992 295.896 99.9646 300.736C102.601 298.344 104.971 295.673 107.033 292.77C110.528 287.791 114.002 280.95 113.465 273.143C112.887 265.585 114.848 261.871 117.009 260.049C118.26 258.99 119.84 258.399 121.479 258.376Z" fill="#E5BAB3"/>
<path d="M119.229 258.037C112.071 257.042 105.779 250.151 102.842 241.109C101.144 236.11 100.731 230.764 101.643 225.564C102.555 220.364 104.761 215.477 108.059 211.355C110.443 214.253 112.416 217.467 113.923 220.905C116.471 226.64 118.174 234.198 115.426 241.567C112.798 248.707 113.793 252.809 115.426 255.12C116.335 256.487 117.673 257.514 119.229 258.037Z" fill="#E5BAB3"/>
<path d="M180.217 268.852C180.217 268.852 183.592 223.782 127.781 198.499C71.9695 173.217 57.5637 137.826 57.5637 137.826C57.5637 137.826 13.251 216.165 118.542 290.629L180.217 268.852Z" fill="#AFCB49"/>
<path d="M58.0913 151.827C58.0913 151.827 67.2107 194.297 100.064 222.926C132.918 251.555 135.964 255.588 153.506 278.302" stroke="#899E32" stroke-miterlimit="10"/>
<path d="M216.974 366C329.772 366 421.214 361.386 421.214 355.694C421.214 350.002 329.772 345.387 216.974 345.387C104.175 345.387 12.7334 350.002 12.7334 355.694C12.7334 361.386 104.175 366 216.974 366Z" fill="#E3FAFF"/>
<path d="M321.458 79.2444H140.982C132.79 79.2444 126.148 85.8872 126.148 94.0816V340.01C126.148 348.204 132.79 354.847 140.982 354.847H321.458C329.651 354.847 336.292 348.204 336.292 340.01V94.0816C336.292 85.8872 329.651 79.2444 321.458 79.2444Z" fill="#00ABEB"/>
<path d="M322.066 105.284H140.385V327.583H322.066V105.284Z" fill="#FFFDFA"/>
<path d="M234.963 93.2949C234.963 94.0359 234.744 94.7602 234.332 95.3761C233.92 95.992 233.335 96.4719 232.65 96.755C231.966 97.0381 231.213 97.1117 230.486 96.9664C229.76 96.8211 229.093 96.4635 228.57 95.9389C228.047 95.4143 227.691 94.7462 227.548 94.0193C227.404 93.2923 227.48 92.5392 227.765 91.8552C228.049 91.1712 228.531 90.5872 229.148 90.1769C229.765 89.7667 230.489 89.5488 231.23 89.5508C231.721 89.5508 232.207 89.6477 232.661 89.836C233.115 90.0243 233.527 90.3002 233.874 90.648C234.22 90.9958 234.495 91.4087 234.682 91.8629C234.869 92.3171 234.965 92.8037 234.963 93.2949Z" fill="white"/>
<path d="M231.22 348.504C235.102 348.504 238.249 345.357 238.249 341.474C238.249 337.591 235.102 334.444 231.22 334.444C227.338 334.444 224.191 337.591 224.191 341.474C224.191 345.357 227.338 348.504 231.22 348.504Z" fill="white"/>
<path d="M322.066 105.284H140.385V118.857H322.066V105.284Z" fill="#17002F"/>
<path d="M218.626 135.666H159.818V199.047H218.626V135.666Z" fill="#17002F"/>
<path d="M159.818 215.298H300.163" stroke="#E3FAFF" stroke-width="3" stroke-miterlimit="10"/>
<path d="M233.938 197.354H300.163" stroke="#E3FAFF" stroke-width="3" stroke-miterlimit="10"/>
<path d="M233.938 182.268H300.163" stroke="#E3FAFF" stroke-width="3" stroke-miterlimit="10"/>
<path d="M233.938 167.182H300.163" stroke="#E3FAFF" stroke-width="3" stroke-miterlimit="10"/>
<path d="M233.938 152.096H300.163" stroke="#E3FAFF" stroke-width="3" stroke-miterlimit="10"/>
<path d="M233.938 137.01H300.163" stroke="#E3FAFF" stroke-width="3" stroke-miterlimit="10"/>
<path d="M159.818 230.823H300.163" stroke="#E3FAFF" stroke-width="3" stroke-miterlimit="10"/>
<path d="M159.818 246.347H300.163" stroke="#E3FAFF" stroke-width="3" stroke-miterlimit="10"/>
<path d="M159.818 261.871H300.163" stroke="#E3FAFF" stroke-width="3" stroke-miterlimit="10"/>
<path d="M159.818 277.395H300.163" stroke="#E3FAFF" stroke-width="3" stroke-miterlimit="10"/>
<path d="M159.818 292.919H300.163" stroke="#E3FAFF" stroke-width="3" stroke-miterlimit="10"/>
<path d="M81.059 314.518H122.694V354.847H81.059C77.7216 354.847 74.5208 353.521 72.1609 351.161C69.8009 348.8 68.4751 345.599 68.4751 342.261V327.115C68.4738 325.461 68.7983 323.823 69.4301 322.295C70.062 320.767 70.9887 319.378 72.1573 318.208C73.326 317.038 74.7137 316.11 76.2411 315.477C77.7685 314.844 79.4057 314.518 81.059 314.518Z" fill="#A5453D"/>
<path d="M273.88 314.518H91.1738V321.369H273.88V314.518Z" fill="#A5453D"/>
<path d="M273.88 347.996H91.1738V354.847H273.88V347.996Z" fill="#A5453D"/>
<path d="M109.661 321.369H270.943V347.996H109.661C107.475 347.996 105.379 347.128 103.833 345.581C102.287 344.035 101.418 341.938 101.418 339.751V329.604C101.421 327.419 102.291 325.325 103.836 323.781C105.382 322.236 107.477 321.369 109.661 321.369Z" fill="#FFFDFA"/>
<path d="M101.667 327.593H270.933" stroke="#E8E8E8" stroke-width="0.97" stroke-miterlimit="10"/>
<path d="M101.667 334.444H270.933" stroke="#E8E8E8" stroke-width="0.97" stroke-miterlimit="10"/>
<path d="M101.667 341.285H270.933" stroke="#E8E8E8" stroke-width="0.97" stroke-miterlimit="10"/>
<path d="M243.983 314.528H203.673V275.483H243.983C247.215 275.483 250.315 276.768 252.6 279.053C254.885 281.339 256.169 284.439 256.169 287.672L256.169 302.33C256.17 303.931 255.856 305.517 255.244 306.997C254.632 308.477 253.735 309.822 252.603 310.955C251.472 312.088 250.128 312.986 248.649 313.599C247.17 314.213 245.584 314.528 243.983 314.528Z" fill="#E48A45"/>
<path d="M92.8961 282.105H234.187V275.473H92.8961V282.105Z" fill="#E48A45"/>
<path d="M92.8961 314.518H234.187V307.886H92.8961V314.518Z" fill="#E48A45"/>
<path d="M216.287 307.896L95.7435 307.896V282.115H216.287C218.399 282.115 220.425 282.954 221.918 284.448C223.412 285.942 224.251 287.969 224.251 290.081L224.251 299.89C224.256 300.939 224.054 301.98 223.656 302.951C223.258 303.922 222.673 304.805 221.932 305.549C221.192 306.293 220.313 306.883 219.344 307.286C218.375 307.689 217.336 307.896 216.287 307.896Z" fill="#FFFDFA"/>
<path d="M95.4648 288.15H224.241" stroke="#E8E8E8" stroke-width="0.97" stroke-miterlimit="10"/>
<path d="M95.4648 295.001H224.241" stroke="#E8E8E8" stroke-width="0.97" stroke-miterlimit="10"/>
<path d="M95.4648 301.842H224.241" stroke="#E8E8E8" stroke-width="0.97" stroke-miterlimit="10"/>
<path d="M354.909 201.955C354.909 201.955 359.678 202.642 362.485 213.008C365.293 223.374 366.936 240.83 377.996 249.852L371.167 259.372L354.949 240.292L354.909 201.955Z" fill="#FFFDFA"/>
<path d="M376.931 251.405C376.931 251.405 387.544 256.135 381.71 265.077L371.167 255.388L376.931 251.405Z" fill="#E1B89B"/>
<path d="M347.074 194.447C348.796 199.425 345.362 205.101 339.418 207.163C333.475 209.224 327.242 206.894 325.48 201.935C323.718 196.976 327.192 191.28 333.136 189.209C339.08 187.137 345.352 189.488 347.074 194.447Z" fill="#3F1311"/>
<path d="M389.873 273.014L363.859 245.62L362.436 241.388L353.247 242.921L346.915 263.155L372.511 280.821L346.915 302.34C346.915 302.34 350.12 319.577 350.837 319.348C351.395 319.158 378.046 297.958 389.366 288.996C390.837 287.832 391.968 286.293 392.641 284.541C393.313 282.789 393.503 280.888 393.189 279.038C392.791 276.715 391.623 274.593 389.873 273.014Z" fill="#405C99"/>
<path d="M348.448 331.287L348.876 345.656H340.125L339.538 330.52L348.448 331.287Z" fill="#E1B89B"/>
<path d="M340.115 344.362L348.846 343.485L361.211 349.102C362.214 349.557 363.022 350.355 363.491 351.352L363.949 353.742L339.289 353.832C339.029 353.833 338.772 353.773 338.539 353.656C338.307 353.539 338.106 353.369 337.952 353.159C337.799 352.949 337.697 352.705 337.656 352.448C337.615 352.191 337.635 351.928 337.716 351.681L340.115 344.362Z" fill="#3F1311"/>
<path d="M336.322 245.62C336.322 245.62 333.176 259.362 335.705 280.891L336.053 336.903L350.897 335.908L356.074 242.443L336.322 245.62Z" fill="#405C99"/>
<path d="M353.097 297.112L351.932 318.521" stroke="#3F1311" stroke-width="0.39" stroke-miterlimit="10"/>
<path d="M354.64 268.503L354.909 261.732L359.389 255.299" stroke="#3F1311" stroke-width="0.39" stroke-miterlimit="10"/>
<path d="M343.291 200.909L351.096 200.829C352.784 200.812 354.421 201.408 355.703 202.507C356.985 203.606 357.824 205.133 358.065 206.804C359.688 218.076 362.485 241.398 362.485 241.398L336.322 245.62V207.88C336.322 206.964 336.502 206.058 336.852 205.212C337.203 204.366 337.716 203.598 338.363 202.951C339.01 202.303 339.779 201.79 340.624 201.44C341.47 201.089 342.376 200.909 343.291 200.909Z" fill="#FFFDFA"/>
<path d="M362.426 241.388L359.13 218.236" stroke="#3F1311" stroke-width="0.39" stroke-miterlimit="10"/>
<path d="M331.354 275.792C334.9 275.792 337.775 272.917 337.775 269.369C337.775 265.822 334.9 262.947 331.354 262.947C327.808 262.947 324.933 265.822 324.933 269.369C324.933 272.917 327.808 275.792 331.354 275.792Z" fill="#E1B89B"/>
<path d="M343.291 200.909C343.291 200.909 331.583 200.202 329.204 209.115C326.824 218.027 327.153 264.41 327.153 264.41L335.326 265.147L339.597 212.241L343.291 200.909Z" fill="#FFFDFA"/>
<path d="M336.879 245.411L338.91 220.198" stroke="#3F1311" stroke-width="0.39" stroke-miterlimit="10"/>
<path d="M346.885 205.599C346.33 205.599 345.782 205.49 345.269 205.278C344.757 205.066 344.292 204.755 343.9 204.363C343.508 203.971 343.197 203.505 342.985 202.993C342.773 202.481 342.664 201.932 342.664 201.377V193.49H351.106V201.377C351.106 201.932 350.997 202.481 350.785 202.993C350.573 203.505 350.262 203.971 349.87 204.363C349.478 204.755 349.012 205.066 348.5 205.278C347.988 205.49 347.439 205.599 346.885 205.599Z" fill="#E1B89B"/>
<path d="M351.096 199.525L342.664 193.471H351.096V199.525Z" fill="#3F1311"/>
<path d="M355.047 193.323C359.231 189.138 359.231 182.354 355.047 178.17C350.864 173.986 344.081 173.986 339.898 178.17C335.715 182.354 335.715 189.138 339.898 193.323C344.081 197.507 350.864 197.507 355.047 193.323Z" fill="#E1B89B"/>
<path d="M356.612 185.445L359.031 188.621C359.087 188.693 359.122 188.779 359.133 188.87C359.144 188.96 359.131 189.052 359.094 189.136C359.057 189.219 358.999 189.292 358.925 189.345C358.85 189.398 358.763 189.43 358.672 189.438L356.074 189.687L356.612 185.445Z" fill="#E1B89B"/>
<path d="M338.741 187.566C338.741 187.566 351.863 189.199 353.217 177.608C353.217 177.608 351.315 173.236 343.629 175.019C335.944 176.801 336.362 186.819 336.362 186.819L338.741 187.566Z" fill="#3F1311"/>
<path d="M352.56 177.717C352.56 177.717 354.82 177.966 357.139 181.083C357.139 181.083 355.098 172.569 343.629 174.989L346.069 179.112L352.56 177.717Z" fill="#3F1311"/>
<path d="M341.3 187.566C341.3 188.225 341.104 188.87 340.738 189.419C340.371 189.968 339.85 190.395 339.241 190.648C338.631 190.9 337.961 190.966 337.314 190.837C336.667 190.709 336.073 190.391 335.606 189.924C335.14 189.458 334.822 188.864 334.693 188.216C334.565 187.569 334.631 186.899 334.883 186.289C335.136 185.68 335.563 185.159 336.112 184.792C336.66 184.425 337.305 184.23 337.965 184.23C338.403 184.228 338.837 184.314 339.242 184.481C339.648 184.648 340.016 184.894 340.326 185.204C340.636 185.514 340.881 185.882 341.048 186.287C341.216 186.693 341.301 187.127 341.3 187.566Z" fill="#E1B89B"/>
<path d="M125.043 253.258C126.139 253.032 127.101 252.381 127.718 251.448C128.336 250.515 128.559 249.376 128.338 248.279L126.765 240.561L118.492 242.244L120.065 249.971C120.291 251.067 120.941 252.028 121.875 252.644C122.808 253.26 123.947 253.481 125.043 253.258Z" fill="#E1B89B"/>
<path d="M119.697 248.169L126.755 240.561L118.492 242.244L119.697 248.169Z" fill="#3F1311"/>
<path d="M129.406 239.904C132.697 234.986 131.38 228.332 126.464 225.04C121.547 221.748 114.894 223.065 111.603 227.983C108.312 232.9 109.629 239.555 114.545 242.847C119.462 246.139 126.115 244.821 129.406 239.904Z" fill="#E1B89B"/>
<path d="M111.493 235.473L109.771 239.068C109.732 239.149 109.715 239.239 109.722 239.329C109.729 239.42 109.76 239.506 109.812 239.58C109.863 239.654 109.934 239.713 110.016 239.751C110.098 239.789 110.189 239.804 110.279 239.795L112.867 239.526L111.493 235.473Z" fill="#E1B89B"/>
<path d="M122.136 222.687C121.137 222.645 120.135 222.709 119.149 222.876C110.348 224.151 110.1 231.36 110.1 231.36C110.762 229.753 111.893 228.383 113.345 227.427C125.979 225.326 126.925 234.517 126.875 234.507L131.594 232.794C131.594 232.794 134.69 223.185 122.136 222.687Z" fill="#3F1311"/>
<path d="M126.895 234.477C127.026 235.124 127.347 235.717 127.815 236.181C128.284 236.646 128.88 236.961 129.528 237.086C130.176 237.212 130.846 237.143 131.454 236.887C132.063 236.631 132.582 236.201 132.945 235.65C133.309 235.1 133.501 234.454 133.498 233.794C133.494 233.134 133.295 232.49 132.926 231.943C132.556 231.396 132.033 230.971 131.422 230.722C130.811 230.473 130.139 230.411 129.493 230.544C128.627 230.721 127.867 231.235 127.38 231.972C126.893 232.71 126.718 233.611 126.895 234.477Z" fill="#E1B89B"/>
<path d="M123.729 229.11C123.49 228.96 122.136 227.875 119.577 229.378C117.019 230.882 108.049 235.493 107.033 229.558C106.018 223.623 113.455 219.978 118.363 223.454C123.271 226.929 125.869 227.208 125.869 227.208L123.729 229.11Z" fill="#3F1311"/>
<path d="M82.5623 328.419L86.3753 342.271L94.738 339.701L90.8653 325.063L82.5623 328.419Z" fill="#E1B89B"/>
<path d="M94.3996 338.467L85.8078 340.189L75.6232 349.151C74.7897 349.881 74.2428 350.883 74.0801 351.979L74.3389 354.399L97.9338 347.259C98.1829 347.183 98.4103 347.048 98.5975 346.866C98.7846 346.685 98.9262 346.462 99.0107 346.215C99.0952 345.969 99.1201 345.705 99.0835 345.447C99.0468 345.189 98.9497 344.943 98.8 344.73L94.3996 338.467Z" fill="#3F1311"/>
<path d="M88.008 296.873L97.1572 333L80.8399 337.152L72.8555 300.318L88.008 296.873Z" fill="#385485"/>
<path d="M62.4716 333.677L58.3301 347.438L66.7725 349.709L71.2824 335.25L62.4716 333.677Z" fill="#E1B89B"/>
<path d="M67.121 348.464L58.9275 345.347L45.5172 347.558C44.4339 347.736 43.4491 348.293 42.7396 349.131L41.6345 351.322L65.4086 357.825C65.6617 357.898 65.9287 357.91 66.1873 357.859C66.4459 357.808 66.6887 357.696 66.8952 357.532C67.1018 357.369 67.2662 357.158 67.3747 356.918C67.4833 356.678 67.5328 356.415 67.5192 356.152L67.121 348.464Z" fill="#3F1311"/>
<path d="M110.946 291.366L77.3653 290.589C75.1785 291.113 73.1766 292.225 71.5762 293.804C69.9757 295.384 68.8379 297.371 68.2857 299.552L57.5635 338.666L72.1485 343.495L83.8663 309.4L119.289 315.315C122.312 315.857 125.426 315.582 128.308 314.518C131.535 313.349 134.18 310.971 135.686 307.886C137.766 303.574 138.085 296.026 132.38 289.534L110.946 291.366Z" fill="#405C99"/>
<path d="M79.9937 268.214C79.6666 269.444 78.9818 270.548 78.0261 271.388C77.0705 272.227 75.887 272.764 74.6259 272.93C73.3648 273.096 72.0829 272.884 70.9426 272.32C69.8024 271.756 68.8552 270.866 68.2213 269.763C67.5874 268.66 67.2952 267.394 67.3819 266.125C67.4685 264.855 67.9301 263.64 68.7081 262.634C69.4861 261.627 70.5454 260.874 71.7517 260.471C72.958 260.067 74.257 260.031 75.4838 260.367C77.1188 260.815 78.5105 261.891 79.3554 263.361C80.2003 264.831 80.4297 266.576 79.9937 268.214Z" fill="#E1B89B"/>
<path d="M104.096 271.51L116.8 254.472C116.8 254.472 120.702 251.764 128.079 255.259C135.457 258.754 119.468 274.308 119.468 274.308L107.202 285.601C106.33 286.369 105.265 286.886 104.122 287.096C102.979 287.306 101.8 287.203 100.711 286.795C93.9117 284.386 79.3167 276.768 76.0015 273.721L80.5711 264.928L104.096 271.51Z" fill="#D9803C"/>
<path d="M69.3412 254.243L71.3025 265.555L57.0659 261.025L69.3412 254.243Z" fill="#FAFAFC"/>
<path d="M75.5137 259.282L59.6843 260.397L69.3412 254.243L67.9574 253.825L57.0659 260.477L61.3867 286.039L80.0336 286.218L75.5137 259.282Z" fill="#A5453D"/>
<path d="M110.946 291.366L116.8 254.472C116.949 252.939 118.492 251.007 121.658 249.932L128.627 247.771C130.937 247.771 133.017 250.35 133.605 252.58C135.238 258.475 137.846 272.586 137.249 295.25L110.946 291.366Z" fill="#E48A45"/>
<path d="M83.5679 276.758C83.5659 278.028 83.1876 279.269 82.4808 280.324C81.7741 281.378 80.7705 282.2 79.597 282.685C78.4234 283.169 77.1326 283.295 75.8876 283.046C74.6427 282.797 73.4994 282.185 72.6024 281.286C71.7053 280.387 71.0947 279.243 70.8478 277.997C70.6008 276.752 70.7285 275.461 71.2148 274.288C71.7012 273.115 72.5242 272.112 73.58 271.407C74.6358 270.702 75.8769 270.325 77.1465 270.325C77.9906 270.325 78.8264 270.492 79.6061 270.815C80.3859 271.138 81.0942 271.612 81.6906 272.21C82.287 272.807 82.7598 273.517 83.0819 274.297C83.4041 275.077 83.5692 275.914 83.5679 276.758Z" fill="#E1B89B"/>
<path d="M105.351 275.673L117.108 253.486C117.108 253.486 118.651 250.34 126.686 251.814C134.72 253.287 123.271 272.476 123.271 272.476L114.311 286.556C113.664 287.524 112.767 288.299 111.715 288.797C110.663 289.295 109.496 289.498 108.337 289.384C101.139 288.817 85.0711 285.222 81.0789 283.131L83.2193 273.462L105.351 275.673Z" fill="#E48A45"/>
<path d="M111.324 288.966C111.963 288.795 112.558 288.492 113.072 288.077C113.587 287.662 114.009 287.144 114.311 286.556C115.715 284.336 124.267 270.146 124.267 270.146" stroke="#3F1311" stroke-width="0.39" stroke-miterlimit="10"/>
<path d="M221.145 312.965L215.609 326.228L207.635 322.634L213.33 308.583L221.145 312.965Z" fill="#E1B89B"/>
<path d="M208.163 321.439L216.476 324.237L225.436 334.454C226.163 335.28 226.569 336.34 226.581 337.441L226.023 339.811L203.514 329.744C203.276 329.637 203.066 329.475 202.902 329.272C202.739 329.068 202.626 328.829 202.572 328.574C202.519 328.318 202.527 328.054 202.595 327.802C202.664 327.55 202.791 327.318 202.966 327.125L208.163 321.439Z" fill="#3F1311"/>
<path d="M232.445 296.295L222.121 322.425L207.127 315.534L221.742 270.972L233.201 275.483L232.445 296.295Z" fill="#385485"/>
<path d="M248.234 317.934L250.345 332.153L241.654 333.189L239.284 318.222L248.234 317.934Z" fill="#E1B89B"/>
<path d="M241.484 331.904L250.056 330.002L262.998 334.125C264.049 334.466 264.943 335.173 265.517 336.117L266.264 338.437L241.783 341.424C241.521 341.458 241.255 341.428 241.007 341.337C240.759 341.245 240.536 341.096 240.358 340.9C240.181 340.705 240.053 340.469 239.985 340.214C239.918 339.958 239.913 339.69 239.971 339.433L241.484 331.904Z" fill="#3F1311"/>
<path d="M195.38 256.842C195.38 256.842 194.195 270.923 201.045 274.109C207.416 277.097 230.264 277.893 230.264 277.893L236.755 325.691L252.416 323.122L248.195 267.577C248.022 266.599 247.543 265.702 246.827 265.015C246.111 264.328 245.196 263.886 244.212 263.753L195.38 256.842Z" fill="#405C99"/>
<path d="M249.708 259.561L251.629 250.907L228.91 248.547L223.186 223.155C222.708 220.845 219.064 217.977 216.545 218.415L217.272 218.226C214.753 218.664 212.444 221.353 212.922 223.653L217.541 254.034C217.734 254.864 218.163 255.62 218.776 256.212C219.389 256.804 220.16 257.206 220.996 257.37L249.708 259.561Z" fill="#913331"/>
<path d="M223.335 224.848C223.231 223.234 222.711 221.674 221.824 220.322C220.938 218.969 219.716 217.869 218.278 217.13C216.018 215.965 213.3 214.93 211.249 215.079C206.719 215.408 201.244 215.577 197.082 217.001L195.38 256.832L224.789 257.529L223.335 224.848Z" fill="#A5453D"/>
<path d="M224.5 258.097C224.281 261.393 226.491 262.08 229.767 262.259C233.042 262.439 236.188 262.259 236.417 258.923C236.471 258.139 236.37 257.351 236.12 256.606C235.87 255.86 235.476 255.171 234.96 254.578C234.443 253.985 233.815 253.499 233.111 253.148C232.407 252.798 231.641 252.59 230.857 252.536C230.072 252.481 229.285 252.582 228.539 252.832C227.794 253.082 227.105 253.477 226.512 253.993C225.314 255.036 224.58 256.512 224.47 258.097H224.5Z" fill="#E1B89B"/>
<path d="M220.1 261.184L226.979 261.662C227.845 261.717 228.698 261.427 229.352 260.857C230.007 260.286 230.409 259.481 230.473 258.615C230.503 258.185 230.448 257.754 230.311 257.346C230.174 256.937 229.958 256.56 229.675 256.235C229.392 255.911 229.048 255.645 228.662 255.454C228.276 255.262 227.856 255.149 227.427 255.12L220.548 254.642C219.681 254.587 218.828 254.876 218.174 255.447C217.52 256.017 217.117 256.823 217.053 257.689C216.996 258.556 217.284 259.41 217.855 260.065C218.426 260.72 219.233 261.123 220.1 261.184Z" fill="#E1B89B"/>
<path d="M202.458 215.816C202.458 215.816 190.77 216.224 190.432 226.302C190.224 235.648 190.523 244.999 191.328 254.313C191.451 255.454 191.889 256.538 192.592 257.446C193.295 258.353 194.236 259.047 195.31 259.451C202.637 262.19 224.799 261.97 224.799 261.97L225.794 252.411L203.772 247.8L202.458 215.816Z" fill="#A5453D"/>
<path d="M224.54 252.132L203.822 247.791L203.523 230.454" stroke="#3F1311" stroke-width="0.39" stroke-miterlimit="10"/>
<path d="M267.299 236.259L239.025 234.975C238.576 234.959 238.134 235.097 237.773 235.364C237.411 235.632 237.151 236.014 237.034 236.449L230.583 261.184C230.512 261.468 230.505 261.763 230.561 262.05C230.618 262.337 230.737 262.608 230.91 262.844C231.083 263.079 231.305 263.274 231.562 263.414C231.819 263.554 232.103 263.636 232.395 263.653L261.137 264.958C261.59 264.972 262.035 264.83 262.397 264.557C262.759 264.283 263.017 263.894 263.128 263.454L269.101 238.699C269.167 238.418 269.171 238.126 269.113 237.844C269.054 237.561 268.935 237.295 268.764 237.063C268.593 236.831 268.373 236.639 268.12 236.5C267.867 236.361 267.587 236.279 267.299 236.259Z" fill="#17002F"/>
<path d="M268.922 236.339L240.648 235.054C240.2 235.039 239.759 235.174 239.398 235.44C239.037 235.706 238.775 236.086 238.657 236.518L232.196 261.263C232.125 261.548 232.118 261.845 232.175 262.132C232.232 262.42 232.352 262.691 232.526 262.927C232.7 263.163 232.924 263.357 233.182 263.497C233.439 263.636 233.725 263.717 234.018 263.733L262.76 265.038C263.213 265.051 263.658 264.91 264.02 264.636C264.382 264.363 264.64 263.974 264.751 263.534L270.724 238.769C270.788 238.489 270.79 238.198 270.731 237.917C270.672 237.635 270.553 237.37 270.382 237.139C270.211 236.908 269.992 236.717 269.74 236.579C269.488 236.441 269.209 236.359 268.922 236.339Z" fill="#17002F"/>
<path d="M231.32 261.473L211.996 260.586C211.718 260.578 211.447 260.676 211.239 260.862C211.032 261.047 210.903 261.305 210.881 261.582C210.872 261.86 210.971 262.131 211.156 262.339C211.341 262.546 211.599 262.675 211.876 262.698L232.345 263.693L231.32 261.473Z" fill="#17002F"/>
<path d="M250.793 249.344C250.764 249.954 250.917 250.56 251.232 251.083C251.547 251.607 252.011 252.025 252.564 252.285C253.117 252.544 253.735 252.634 254.339 252.542C254.943 252.451 255.506 252.182 255.957 251.77C256.408 251.358 256.727 250.821 256.873 250.227C257.019 249.634 256.985 249.011 256.777 248.436C256.568 247.862 256.193 247.362 255.701 247.001C255.208 246.64 254.619 246.433 254.009 246.406C253.193 246.371 252.397 246.661 251.795 247.211C251.192 247.762 250.832 248.529 250.793 249.344Z" fill="white"/>
<path d="M210.064 220.158C209.516 220.081 208.988 219.896 208.511 219.614C208.034 219.333 207.618 218.959 207.285 218.516C206.953 218.073 206.712 217.568 206.576 217.031C206.439 216.494 206.41 215.936 206.49 215.388L207.615 207.581L215.958 208.786L214.863 216.553C214.789 217.106 214.605 217.64 214.323 218.122C214.04 218.604 213.665 219.025 213.218 219.36C212.772 219.696 212.263 219.939 211.721 220.076C211.18 220.213 210.617 220.24 210.064 220.158Z" fill="#E1B89B"/>
<path d="M215.191 214.641L207.436 207.461L215.958 208.527L215.191 214.641Z" fill="#3F1311"/>
<path d="M224.082 202.144C223.78 204.244 222.863 206.207 221.446 207.786C220.028 209.364 218.175 210.487 216.12 211.011C214.065 211.536 211.9 211.439 209.9 210.733C207.9 210.027 206.154 208.743 204.883 207.044C203.613 205.345 202.874 203.308 202.761 201.189C202.649 199.071 203.167 196.966 204.25 195.142C205.333 193.318 206.933 191.857 208.847 190.942C210.761 190.028 212.903 189.702 215.002 190.005C217.814 190.414 220.349 191.922 222.051 194.197C223.753 196.473 224.483 199.331 224.082 202.144Z" fill="#E1B89B"/>
<path d="M222.559 201.616L224.55 205.111C224.594 205.191 224.617 205.28 224.615 205.371C224.613 205.462 224.587 205.551 224.539 205.628C224.492 205.705 224.424 205.768 224.343 205.811C224.263 205.853 224.173 205.873 224.082 205.868L221.473 205.749L222.559 201.616Z" fill="#E1B89B"/>
<path d="M211.438 187.506C212.431 187.404 213.432 187.404 214.425 187.506C223.295 188.273 222.439 194.705 222.439 194.705C221.175 192.375 221.026 194.068 220.249 193.66C207.456 187.426 207.088 201.526 207.137 201.517L202.209 201.058C202.209 201.058 198.934 188.741 211.438 187.506Z" fill="#3F1311"/>
<path d="M205.812 203.737C207.288 202.635 207.592 200.545 206.49 199.068C205.388 197.592 203.298 197.288 201.822 198.391C200.346 199.493 200.043 201.583 201.145 203.059C202.247 204.536 204.336 204.839 205.812 203.737Z" fill="#E1B89B"/>
<path d="M210.721 192.654C210.721 192.654 212.832 190.752 215.699 193.271C218.566 195.791 222.668 196.657 223.246 194.835C223.823 193.013 220.926 189.049 217.69 188.283C214.455 187.516 211.07 190.165 211.07 190.165L210.721 192.654Z" fill="#3F1311"/>
<path d="M138.609 46.0443C150.836 41.0636 156.711 27.1124 151.731 14.8833C146.751 2.65424 132.803 -3.22179 120.577 1.75885C108.35 6.73949 102.476 20.6907 107.455 32.9198C112.435 45.1489 126.383 51.0249 138.609 46.0443Z" fill="#E3FAFF"/>
<path d="M282.681 37.6804C281.884 37.6804 281.456 36.5452 281.984 35.8083C285.21 31.2974 293.433 28.1507 302.891 28.1109C317.018 28.0611 320.572 35.649 333.216 23.132C336.202 20.1446 339.836 18.8999 348.876 23.3909C357.916 27.8818 357.488 12.0589 365.064 11.2324C377.558 9.91793 389.087 26.5276 393.836 34.3246C394.831 35.9576 393.836 38.238 392.183 38.228L282.681 37.6804Z" fill="#E3FAFF"/>
<path d="M89.1031 98.7019C89.5411 98.7019 89.7801 98.0646 89.4914 97.6464C87.7491 95.0573 83.279 93.2251 78.132 93.1554C70.4064 93.0459 70.5557 87.5093 62.2925 84.044C51.7793 79.6327 47.1798 93.1952 43.0482 92.6874C36.2087 91.841 26.9997 91.7713 24.3814 96.1826C23.8338 97.0987 24.3814 98.4032 25.2674 98.4032L89.1031 98.7019Z" fill="#E3FAFF"/>
<path d="M168.131 181.093V175.118L165.642 179.679H164.915L162.406 175.118V181.093H161.102V172.739H162.516L165.284 177.857L168.071 172.739H169.485V181.113L168.131 181.093Z" fill="#00ABEB"/>
<path d="M173.876 181.213C173.424 181.218 172.977 181.13 172.561 180.954C172.189 180.792 171.852 180.557 171.571 180.263C171.291 179.969 171.072 179.621 170.929 179.241C170.778 178.85 170.701 178.435 170.7 178.016C170.7 177.597 170.777 177.182 170.929 176.791C171.073 176.42 171.289 176.082 171.566 175.796C171.849 175.501 172.187 175.264 172.561 175.099C173.397 174.753 174.335 174.753 175.17 175.099C175.544 175.264 175.882 175.501 176.165 175.796C176.442 176.082 176.659 176.42 176.803 176.791C176.954 177.182 177.032 177.597 177.032 178.016C177.031 178.435 176.953 178.85 176.803 179.241C176.659 179.612 176.442 179.951 176.165 180.237C175.882 180.532 175.544 180.769 175.17 180.934C174.762 181.115 174.322 181.21 173.876 181.213ZM172.034 178.026C172.032 178.308 172.079 178.587 172.173 178.853C172.266 179.093 172.401 179.316 172.571 179.51C172.734 179.691 172.93 179.84 173.149 179.948C173.377 180.053 173.625 180.107 173.876 180.107C174.126 180.107 174.374 180.053 174.602 179.948C174.824 179.837 175.024 179.685 175.19 179.5C175.353 179.303 175.485 179.081 175.578 178.843C175.764 178.311 175.764 177.732 175.578 177.2C175.487 176.957 175.356 176.731 175.19 176.532C175.024 176.348 174.824 176.196 174.602 176.084C174.374 175.981 174.126 175.927 173.876 175.925C173.627 175.926 173.382 175.984 173.159 176.094C172.938 176.203 172.741 176.355 172.581 176.542C172.409 176.738 172.274 176.965 172.183 177.21C172.089 177.471 172.045 177.748 172.054 178.026H172.034Z" fill="#00ABEB"/>
<path d="M181.551 180.774C181.331 180.878 181.105 180.967 180.874 181.043C180.573 181.143 180.257 181.194 179.939 181.193C179.743 181.194 179.548 181.163 179.361 181.103C179.188 181.056 179.025 180.975 178.883 180.864C178.742 180.745 178.63 180.595 178.555 180.426C178.479 180.222 178.442 180.006 178.445 179.788V175.925H177.629V174.929H178.445V172.938H179.74V174.929H181.084V175.925H179.74V179.37C179.739 179.46 179.757 179.549 179.793 179.632C179.829 179.714 179.882 179.788 179.949 179.848C180.075 179.95 180.234 180.003 180.397 179.998C180.573 179.999 180.748 179.968 180.914 179.908L181.283 179.749L181.551 180.774Z" fill="#00ABEB"/>
<path d="M182.447 173.913V172.479H183.751V173.913H182.447ZM182.447 181.093V174.919H183.751V181.093H182.447Z" fill="#00ABEB"/>
<path d="M187.037 181.093L184.677 174.919H185.992L187.764 179.998L189.546 174.919H190.77L188.411 181.093H187.037Z" fill="#00ABEB"/>
<path d="M193.199 181.213C192.914 181.215 192.63 181.164 192.363 181.063C192.119 180.971 191.896 180.833 191.706 180.655C191.521 180.484 191.372 180.277 191.268 180.048C191.165 179.805 191.11 179.544 191.109 179.281C191.109 179.004 191.173 178.731 191.298 178.484C191.433 178.247 191.616 178.04 191.835 177.877C192.084 177.692 192.364 177.554 192.662 177.469C193.005 177.374 193.361 177.327 193.717 177.329C194.007 177.331 194.297 177.358 194.583 177.409C194.845 177.453 195.102 177.523 195.35 177.618V177.19C195.363 176.994 195.334 176.798 195.265 176.614C195.196 176.43 195.09 176.263 194.952 176.124C194.801 175.988 194.625 175.883 194.434 175.816C194.242 175.749 194.039 175.722 193.836 175.736C193.495 175.732 193.157 175.797 192.841 175.925C192.49 176.057 192.155 176.231 191.845 176.443L191.447 175.616C192.175 175.108 193.039 174.831 193.926 174.82C194.648 174.776 195.359 175.007 195.917 175.467C196.161 175.709 196.35 176 196.472 176.322C196.594 176.643 196.646 176.986 196.624 177.329V179.56C196.624 179.839 196.734 179.978 196.963 179.988V181.093C196.858 181.117 196.751 181.134 196.644 181.143H196.375C196.162 181.157 195.952 181.089 195.788 180.954C195.654 180.827 195.566 180.658 195.539 180.476V180.077C195.284 180.436 194.941 180.724 194.543 180.914C194.124 181.115 193.664 181.217 193.199 181.213ZM193.548 180.217C193.854 180.218 194.158 180.16 194.444 180.048C194.699 179.945 194.925 179.781 195.101 179.57C195.172 179.518 195.232 179.451 195.275 179.373C195.318 179.296 195.343 179.21 195.35 179.122V178.305C195.121 178.218 194.884 178.151 194.643 178.106C194.404 178.058 194.16 178.035 193.916 178.036C193.516 178.019 193.121 178.123 192.781 178.335C192.643 178.417 192.529 178.534 192.451 178.673C192.372 178.813 192.332 178.971 192.333 179.131C192.33 179.279 192.36 179.425 192.42 179.559C192.48 179.693 192.57 179.813 192.682 179.908C192.914 180.133 193.225 180.258 193.548 180.257V180.217Z" fill="#00ABEB"/>
<path d="M201.602 180.774C201.378 180.876 201.148 180.965 200.915 181.043C200.613 181.144 200.297 181.195 199.979 181.193C199.783 181.194 199.588 181.163 199.402 181.103C199.228 181.056 199.066 180.975 198.924 180.864C198.785 180.744 198.676 180.594 198.605 180.426C198.521 180.224 198.48 180.007 198.486 179.788V175.925H197.669V174.929H198.486V172.938H199.78V174.929H201.124V175.925H199.78V179.37C199.777 179.456 199.792 179.542 199.824 179.621C199.857 179.701 199.906 179.772 199.968 179.832C200.03 179.891 200.104 179.936 200.185 179.965C200.265 179.994 200.352 180.005 200.437 179.998C200.617 179.999 200.795 179.968 200.965 179.908L201.323 179.749L201.602 180.774Z" fill="#00ABEB"/>
<path d="M205.136 181.212C204.689 181.22 204.245 181.136 203.832 180.964C203.457 180.8 203.119 180.563 202.837 180.266C202.556 179.981 202.336 179.643 202.189 179.271C202.036 178.881 201.959 178.465 201.96 178.046C201.96 177.624 202.038 177.205 202.189 176.811C202.34 176.441 202.56 176.103 202.837 175.815C203.119 175.519 203.457 175.282 203.832 175.118C204.672 174.78 205.61 174.78 206.45 175.118C206.826 175.277 207.165 175.511 207.446 175.805C207.723 176.092 207.939 176.43 208.083 176.801C208.227 177.183 208.301 177.588 208.302 177.996C208.308 178.086 208.308 178.175 208.302 178.265C208.308 178.335 208.308 178.404 208.302 178.474H203.324C203.34 178.73 203.404 178.98 203.514 179.211C203.618 179.426 203.76 179.622 203.932 179.789C204.099 179.946 204.295 180.071 204.509 180.157C204.724 180.246 204.954 180.29 205.186 180.286C205.534 180.296 205.879 180.21 206.182 180.037C206.321 179.951 206.448 179.847 206.56 179.729C206.672 179.618 206.76 179.486 206.819 179.34L207.934 179.659C207.704 180.141 207.332 180.54 206.869 180.804C206.34 181.097 205.74 181.238 205.136 181.212ZM207.008 177.548C206.994 177.296 206.929 177.048 206.819 176.821C206.72 176.61 206.582 176.421 206.411 176.263C206.24 176.112 206.045 175.99 205.833 175.905C205.612 175.816 205.375 175.772 205.136 175.776C204.901 175.772 204.667 175.816 204.449 175.905C204.238 175.99 204.042 176.112 203.872 176.263C203.704 176.422 203.569 176.611 203.474 176.821C203.368 177.05 203.304 177.296 203.285 177.548H207.008Z" fill="#00ABEB"/>
<path d="M212.942 179.958C213.327 179.975 213.709 179.886 214.047 179.699C214.33 179.532 214.568 179.3 214.744 179.022C214.934 178.718 215.063 178.38 215.122 178.026C215.199 177.663 215.235 177.292 215.231 176.921V172.739H216.565V176.981C216.572 177.528 216.505 178.074 216.366 178.604C216.246 179.087 216.029 179.541 215.729 179.938C215.434 180.328 215.048 180.639 214.604 180.844C214.081 181.076 213.513 181.188 212.942 181.173C212.358 181.188 211.779 181.069 211.249 180.824C210.809 180.609 210.427 180.291 210.134 179.898C209.847 179.494 209.64 179.037 209.527 178.554C209.397 178.04 209.334 177.511 209.338 176.981V172.739H210.662V176.981C210.657 177.355 210.693 177.729 210.771 178.096C210.83 178.45 210.959 178.788 211.15 179.092C211.325 179.373 211.568 179.605 211.856 179.769C212.195 179.926 212.569 179.991 212.942 179.958Z" fill="#00ABEB"/>
<path d="M185.991 164.872C185.755 164.87 185.523 164.93 185.317 165.045C185.111 165.161 184.939 165.327 184.817 165.529C179.839 164.334 176.404 160.998 176.404 157.234C176.404 154.247 178.515 151.628 181.72 150.045C181.099 150.585 180.6 151.252 180.257 152.001C179.914 152.749 179.734 153.563 179.729 154.386C179.712 155.569 180.126 156.717 180.894 157.617C181.662 158.517 182.73 159.106 183.901 159.275H184C184.123 159.276 184.241 159.232 184.333 159.151C184.425 159.071 184.483 158.959 184.498 158.837C184.506 158.772 184.502 158.705 184.484 158.642C184.466 158.578 184.436 158.519 184.396 158.467C184.355 158.415 184.304 158.372 184.247 158.34C184.189 158.307 184.126 158.287 184.06 158.28C183.125 158.152 182.271 157.682 181.662 156.961C181.054 156.24 180.734 155.319 180.765 154.376C180.765 151.717 182.925 149.816 185.653 148.969C185.282 149.31 184.998 149.735 184.825 150.207C184.652 150.68 184.594 151.188 184.657 151.688C184.916 152.982 186.24 153.829 187.325 154.326V154.386C187.332 154.703 187.448 155.008 187.653 155.249C187.859 155.491 188.141 155.653 188.453 155.71C188.765 155.767 189.087 155.714 189.364 155.561C189.641 155.407 189.857 155.163 189.975 154.869C190.092 154.574 190.105 154.248 190.01 153.946C189.915 153.644 189.718 153.383 189.453 153.209C189.188 153.035 188.871 152.958 188.556 152.991C188.241 153.024 187.947 153.165 187.724 153.39C186.798 152.972 185.812 152.315 185.633 151.469C185.424 150.473 186.529 149.318 187.525 148.541C187.917 148.49 188.313 148.463 188.709 148.461C190.648 148.451 192.574 148.788 194.394 149.457C194.458 149.49 194.528 149.509 194.6 149.513C194.672 149.516 194.743 149.505 194.81 149.479C194.877 149.453 194.938 149.413 194.988 149.361C195.039 149.31 195.078 149.248 195.103 149.181C195.127 149.113 195.138 149.042 195.133 148.97C195.128 148.898 195.107 148.828 195.073 148.765C195.039 148.702 194.992 148.646 194.935 148.602C194.878 148.559 194.812 148.528 194.742 148.511C192.806 147.806 190.76 147.452 188.699 147.465C181.332 147.465 175.339 151.847 175.339 157.224C175.339 161.466 179.102 165.19 184.578 166.515C184.627 166.77 184.747 167.007 184.924 167.198C185.101 167.388 185.329 167.525 185.58 167.592C185.831 167.659 186.097 167.654 186.345 167.577C186.594 167.5 186.816 167.355 186.986 167.158C187.156 166.96 187.266 166.719 187.305 166.462C187.344 166.204 187.31 165.941 187.206 165.703C187.102 165.464 186.933 165.259 186.718 165.112C186.503 164.965 186.251 164.882 185.991 164.872ZM188.759 153.819C188.925 153.819 189.085 153.885 189.203 154.002C189.32 154.12 189.386 154.28 189.386 154.446C189.386 154.612 189.32 154.772 189.203 154.89C189.085 155.007 188.925 155.073 188.759 155.073C188.593 155.073 188.433 155.007 188.316 154.89C188.198 154.772 188.132 154.612 188.132 154.446C188.132 154.28 188.198 154.12 188.316 154.002C188.433 153.885 188.593 153.819 188.759 153.819ZM185.991 166.883C185.867 166.883 185.746 166.846 185.643 166.778C185.54 166.709 185.459 166.611 185.412 166.496C185.364 166.381 185.352 166.255 185.376 166.134C185.4 166.012 185.46 165.9 185.548 165.812C185.636 165.725 185.747 165.665 185.869 165.641C185.991 165.616 186.117 165.629 186.231 165.676C186.346 165.724 186.444 165.804 186.513 165.907C186.582 166.011 186.619 166.132 186.619 166.256C186.619 166.422 186.553 166.582 186.435 166.699C186.317 166.817 186.158 166.883 185.991 166.883Z" fill="#00ABEB"/>
<path d="M200.676 152.823L200.109 153.819C199.865 153.404 199.578 153.017 199.252 152.664C200.424 153.92 201.091 155.566 201.124 157.284C201.087 158.908 200.477 160.467 199.402 161.685C199.402 161.685 197.709 163.796 197.002 164.673C196.805 165.247 196.527 165.79 196.176 166.286L195.18 166.863C194.055 168.138 193.02 169.263 192.333 170C192.074 164.723 190.183 162.034 188.799 160.7C188.799 160.425 188.718 160.157 188.565 159.93C188.412 159.702 188.196 159.524 187.942 159.42C187.689 159.315 187.41 159.289 187.141 159.343C186.873 159.397 186.626 159.53 186.433 159.724C186.24 159.919 186.109 160.167 186.057 160.436C186.004 160.705 186.033 160.983 186.139 161.236C186.246 161.489 186.425 161.704 186.654 161.855C186.882 162.006 187.151 162.086 187.425 162.084C187.77 162.085 188.101 161.953 188.351 161.715C189.645 163.06 191.338 165.868 191.338 171.275C191.338 171.376 191.369 171.474 191.426 171.557C191.482 171.641 191.563 171.705 191.656 171.743C191.716 171.752 191.776 171.752 191.835 171.743C191.905 171.744 191.973 171.73 192.037 171.703C192.1 171.675 192.157 171.635 192.204 171.583C192.204 171.524 197.859 165.609 200.636 161.805L200.706 161.665C201.65 160.385 202.16 158.835 202.16 157.244C202.16 155.653 201.65 154.103 200.706 152.823H200.676ZM187.355 161.297C187.186 161.297 187.024 161.23 186.905 161.11C186.785 160.991 186.718 160.829 186.718 160.66C186.738 160.506 186.812 160.364 186.929 160.261C187.045 160.159 187.195 160.102 187.35 160.102C187.506 160.102 187.655 160.159 187.772 160.261C187.888 160.364 187.963 160.506 187.983 160.66C187.975 160.822 187.906 160.975 187.789 161.088C187.673 161.201 187.518 161.265 187.355 161.267V161.297Z" fill="#AFCB49"/>
<path d="M195.131 166.256C195.371 165.74 195.551 165.199 195.668 164.643C196.365 161.357 194.743 158.33 193.677 156.786C193.607 157.05 193.449 157.282 193.229 157.443C194.282 158.741 194.956 160.306 195.176 161.963C195.395 163.62 195.152 165.306 194.474 166.834L195.131 166.256Z" fill="#AFCB49"/>
<path d="M193.956 156.806C194.048 156.613 194.096 156.402 194.096 156.189C194.096 155.915 194.014 155.647 193.862 155.42C193.71 155.192 193.494 155.015 193.241 154.91C192.988 154.805 192.71 154.778 192.442 154.831C192.173 154.884 191.927 155.016 191.733 155.21C191.54 155.403 191.408 155.65 191.354 155.919C191.301 156.187 191.328 156.465 191.433 156.718C191.538 156.971 191.715 157.187 191.943 157.339C192.17 157.492 192.438 157.573 192.712 157.573C192.97 157.574 193.223 157.503 193.443 157.367C193.663 157.232 193.841 157.037 193.956 156.806ZM192.712 155.561C192.879 155.561 193.04 155.627 193.159 155.744C193.278 155.862 193.346 156.021 193.349 156.189C193.36 156.278 193.352 156.369 193.326 156.456C193.299 156.542 193.254 156.622 193.195 156.69C193.135 156.757 193.061 156.812 192.979 156.849C192.896 156.886 192.807 156.905 192.717 156.905C192.626 156.905 192.537 156.886 192.455 156.849C192.372 156.812 192.299 156.757 192.239 156.69C192.179 156.622 192.134 156.542 192.108 156.456C192.081 156.369 192.073 156.278 192.085 156.189C192.079 156.025 192.137 155.867 192.247 155.746C192.357 155.625 192.509 155.552 192.672 155.541L192.712 155.561Z" fill="#AFCB49"/>
<path d="M200.676 152.823C200.121 152.002 199.423 151.287 198.615 150.712C198.626 150.616 198.626 150.519 198.615 150.423C198.615 150.149 198.534 149.882 198.382 149.654C198.23 149.426 198.014 149.249 197.761 149.144C197.508 149.039 197.23 149.012 196.962 149.065C196.693 149.119 196.447 149.251 196.253 149.444C196.059 149.638 195.928 149.884 195.874 150.153C195.821 150.421 195.848 150.7 195.953 150.953C196.058 151.206 196.235 151.422 196.463 151.574C196.69 151.726 196.958 151.807 197.231 151.807C197.511 151.806 197.785 151.723 198.018 151.568C198.458 151.881 198.862 152.241 199.223 152.644C199.548 152.997 199.835 153.384 200.079 153.799L200.676 152.823ZM197.261 151.05C197.137 151.05 197.016 151.014 196.913 150.945C196.81 150.876 196.729 150.778 196.682 150.663C196.634 150.548 196.622 150.422 196.646 150.301C196.67 150.179 196.73 150.067 196.818 149.979C196.906 149.892 197.017 149.832 197.139 149.808C197.261 149.783 197.387 149.796 197.501 149.843C197.616 149.891 197.714 149.971 197.783 150.074C197.852 150.178 197.889 150.299 197.889 150.423C197.881 150.584 197.811 150.736 197.695 150.847C197.578 150.959 197.423 151.021 197.261 151.02V151.05Z" fill="#AFCB49"/>
</g>
<defs>
<clipPath id="clip0_586_9">
<rect width="449" height="366" fill="white"/>
</clipPath>
</defs>
</svg>
