<?xml version="1.0" encoding="UTF-8"?>
<svg xmlns="http://www.w3.org/2000/svg" width="545" height="690" viewBox="0 0 545 690" fill="none">
  <path d="M326.99 674.971C326.99 683.037 301.686 689.581 270.477 689.581C239.268 689.581 213.956 683.037 213.956 674.971C213.956 666.904 239.259 660.369 270.477 660.369C301.695 660.369 326.99 666.904 326.99 674.971Z" fill="#B13044"></path>
  <path opacity="0.3" d="M327.619 532.602L328.057 531.167H327.444C325.318 533.923 323.201 536.889 323.201 536.889C325.747 542.54 331.819 558.323 320.209 563.38C316.368 565.051 317.006 565.515 319.675 565.243C320.288 565.037 320.875 564.761 321.425 564.421C329.457 562.671 335.021 561.018 335.021 557.422C335.025 556.255 334.833 555.096 334.453 553.993C332.825 548.148 328.967 536.626 327.619 532.602Z" fill="#6FD8E5"></path>
  <path d="M335.048 557.44C335.052 556.273 334.859 555.114 334.479 554.011C332.825 548.132 328.967 536.61 327.619 532.585L328.057 531.15H212.827L213.264 532.585C211.917 536.61 208.058 548.132 206.405 554.011C206.024 555.114 205.832 556.273 205.836 557.44C205.836 567.991 254.833 569.286 271.781 569.776C286.27 570.187 298.178 568.158 307.251 566.854C313.375 565.979 318.223 566.417 321.451 564.404C329.483 562.69 335.048 561.019 335.048 557.44Z" fill="#9C7F61"></path>
  <path d="M272.271 552.82C296.962 552.82 321.461 548.673 331.523 544.43C329.991 539.671 328.39 534.903 327.62 532.602L328.058 531.167H212.828L213.265 532.602C212.53 534.789 211.06 539.19 209.599 543.704C218.681 548.253 245.577 552.864 272.271 552.82Z" fill="#9B3248"></path>
  <path d="M226.073 620.842C226.073 620.842 233.947 636.8 240.133 641.06C246.774 645.636 265.506 647.438 273.547 647.184C279.891 647.018 295.5 645.382 300.81 641.935C306.839 637.989 315.755 623.475 315.755 623.475L226.073 620.842Z" fill="#953551"></path>
  <path d="M212.013 613.808C212.013 613.808 219.328 621.936 222.565 623.476C233.397 628.637 256.854 630.475 270.039 630.475C328.074 630.475 330.708 612.89 330.708 612.89L212.013 613.808Z" fill="#C54A51"></path>
  <path d="M335.048 582.952C335.052 581.785 334.859 580.626 334.479 579.523C332.825 573.643 328.967 562.113 327.619 558.088L328.057 556.662H212.827L213.264 558.088C211.917 562.113 208.058 573.643 206.405 579.523C206.024 580.626 205.832 581.785 205.836 582.952C205.836 593.503 254.833 594.798 271.781 595.279C286.27 595.699 298.178 593.669 307.251 592.357C313.375 591.482 318.223 591.928 321.451 589.916C329.483 588.14 335.048 586.504 335.048 582.952Z" fill="#9C7F61"></path>
  <path d="M272.271 578.962C297.11 578.962 321.757 574.763 331.705 570.493C330.113 565.55 329.186 562.751 328.372 560.354L306.446 566.189L271.404 569.828L212.276 561.08C211.506 563.354 210.937 565.069 209.415 569.767C218.304 574.334 245.383 579.006 272.271 578.962Z" fill="#9B3248"></path>
  <path d="M335.048 608.235C335.052 607.068 334.859 605.909 334.479 604.806C332.825 598.927 328.967 587.396 327.619 583.371L328.057 581.945H212.827L213.264 583.371C211.917 587.396 208.058 598.927 206.405 604.806C206.024 605.909 205.832 607.068 205.836 608.235C205.836 618.786 254.833 620.081 271.781 620.562C286.27 620.973 298.178 618.953 307.251 617.64C313.375 616.765 318.223 617.212 321.451 615.191C329.483 613.432 335.048 611.787 335.048 608.235Z" fill="#9C7F61"></path>
  <path d="M334.637 605.024C333.928 602.513 332.817 598.97 331.68 595.4C330.001 596.089 328.286 596.688 326.544 597.194C327.655 602.259 327.734 607.92 324.225 611.682C330.192 610.02 334.129 608.27 335.022 606.747C335.022 606.922 335.101 607.089 335.144 607.255C335.032 606.5 334.862 605.754 334.637 605.024Z" fill="#E04C5A"></path>
  <path d="M272.271 604.727C297.11 604.727 321.757 600.519 331.705 596.258C330.113 591.306 329.186 588.515 328.372 586.118L306.446 591.91L271.404 595.549L212.276 586.801C211.506 589.084 210.937 590.79 209.415 595.488C218.304 600.09 245.383 604.77 272.271 604.727Z" fill="#9B3248"></path>
  <path d="M271.413 391.862L152.185 373.551C163.708 387.383 191.461 412.142 194.654 426.664C196.92 437.014 197.699 451.616 198.522 467.084C199.545 486.331 200.709 490.705 205.11 502.464C209.222 513.408 231.901 519.252 270.731 519.392H272.122C310.943 519.252 333.622 513.408 337.743 502.464C342.117 490.714 343.307 486.348 344.331 467.084C345.153 451.616 345.932 437.014 348.207 426.664C351.392 412.142 379.145 387.383 390.668 373.551L271.413 391.862Z" fill="#FFCF21"></path>
  <path d="M329.623 496.943C329.623 502.192 303.979 506.452 272.358 506.452C240.738 506.452 215.093 502.201 215.093 496.943C215.093 491.685 240.729 487.45 272.385 487.45C304.04 487.45 329.623 491.693 329.623 496.943Z" fill="#91704F"></path>
  <path d="M382.495 382.116C443.899 320.717 443.899 221.168 382.495 159.768C321.09 98.3687 221.534 98.3687 160.129 159.768C98.7245 221.168 98.7245 320.717 160.129 382.116C221.534 443.516 321.09 443.516 382.495 382.116Z" fill="#FFCF21"></path>
  <path d="M227.123 347.251H223.737C231.087 397.88 235.453 458.448 237.518 492.69C237.859 498.289 238.139 503.189 238.393 507.222C239.486 507.406 240.624 507.572 241.796 507.729C241.569 503.495 241.271 498.237 240.921 492.174C238.795 457.949 234.447 397.819 227.123 347.251Z" fill="white"></path>
  <path d="M304.092 423.147C302.421 448.955 301.748 472.839 301.468 490.442C301.38 496.636 301.345 502.06 301.336 506.505C302.503 506.359 303.632 506.201 304.722 506.032C304.722 501.798 304.775 496.706 304.862 490.914C305.291 461.475 306.919 413.925 312.527 368.904H309.027C307.021 385.387 305.376 403.468 304.092 423.147Z" fill="#58595B"></path>
  <path d="M254.597 421.004C253.798 420.864 252.975 420.964 252.232 421.292C251.49 421.619 250.861 422.16 250.426 422.844C249.99 423.529 249.768 424.328 249.786 425.139C249.805 425.95 250.063 426.738 250.53 427.402C250.996 428.067 251.648 428.578 252.405 428.871C253.162 429.165 253.988 429.227 254.78 429.051C255.573 428.874 256.295 428.467 256.855 427.88C257.416 427.294 257.79 426.554 257.93 425.755C258.025 425.224 258.013 424.679 257.897 424.153C257.78 423.626 257.56 423.128 257.251 422.687C256.941 422.245 256.547 421.869 256.092 421.581C255.636 421.292 255.128 421.096 254.597 421.004Z" fill="#2CA2DD"></path>
  <path d="M287.486 427.958L280.863 426.794C281.192 421.674 280.054 416.566 277.582 412.07L283.094 408.203C283.737 407.753 284.174 407.066 284.31 406.293C284.447 405.521 284.27 404.725 283.82 404.083C283.37 403.44 282.683 403.002 281.91 402.866C281.137 402.73 280.342 402.906 279.699 403.357L274.178 407.223C270.804 403.35 266.389 400.526 261.457 399.087L262.62 392.456C262.687 392.073 262.679 391.681 262.594 391.302C262.51 390.923 262.352 390.564 262.129 390.246C261.906 389.928 261.622 389.657 261.294 389.448C260.967 389.24 260.601 389.098 260.218 389.03C259.836 388.963 259.444 388.972 259.065 389.056C258.685 389.141 258.326 389.299 258.008 389.522C257.69 389.745 257.419 390.028 257.211 390.356C257.002 390.684 256.86 391.049 256.793 391.432L255.621 398.064C250.496 397.731 245.383 398.872 240.887 401.353L237.028 395.841C236.562 395.24 235.882 394.84 235.129 394.726C234.376 394.612 233.608 394.791 232.984 395.228C232.36 395.664 231.928 396.323 231.777 397.069C231.626 397.815 231.767 398.591 232.172 399.236L236.039 404.756C232.184 408.131 229.376 412.539 227.946 417.46L221.314 416.296C220.922 416.207 220.516 416.199 220.121 416.272C219.726 416.345 219.35 416.497 219.016 416.719C218.681 416.942 218.395 417.23 218.176 417.567C217.956 417.903 217.807 418.28 217.737 418.676C217.668 419.072 217.68 419.477 217.772 419.868C217.864 420.259 218.035 420.628 218.273 420.951C218.512 421.274 218.814 421.545 219.161 421.748C219.507 421.951 219.892 422.081 220.29 422.131L226.922 423.295C226.586 428.415 227.721 433.524 230.195 438.019L224.683 441.886C224.364 442.109 224.093 442.393 223.885 442.722C223.676 443.05 223.534 443.416 223.467 443.799C223.4 444.182 223.409 444.575 223.494 444.954C223.579 445.334 223.737 445.693 223.961 446.011C224.184 446.329 224.468 446.6 224.796 446.809C225.125 447.017 225.491 447.159 225.874 447.226C226.257 447.293 226.65 447.284 227.029 447.2C227.409 447.115 227.768 446.956 228.086 446.733L233.598 442.866C236.979 446.725 241.393 449.536 246.32 450.967L245.156 457.599C245.062 458.354 245.261 459.117 245.714 459.73C246.166 460.342 246.837 460.757 247.587 460.889C248.337 461.02 249.109 460.858 249.743 460.436C250.377 460.014 250.824 459.365 250.992 458.622L252.156 452C257.277 452.33 262.385 451.192 266.881 448.719L270.748 454.231C270.971 454.549 271.255 454.82 271.582 455.029C271.91 455.237 272.276 455.38 272.658 455.447C273.041 455.514 273.433 455.506 273.813 455.422C274.192 455.338 274.551 455.18 274.869 454.957C275.188 454.734 275.459 454.45 275.668 454.123C275.876 453.795 276.019 453.429 276.086 453.047C276.153 452.664 276.145 452.272 276.061 451.893C275.977 451.513 275.819 451.154 275.596 450.836L271.728 445.316C275.59 441.937 278.401 437.522 279.83 432.595L286.462 433.758C287.218 433.853 287.981 433.653 288.593 433.201C289.206 432.749 289.621 432.078 289.752 431.328C289.884 430.578 289.722 429.806 289.3 429.172C288.878 428.539 288.229 428.091 287.486 427.923V427.958ZM252.488 433.207C250.872 432.922 249.376 432.163 248.191 431.028C247.005 429.892 246.183 428.431 245.827 426.829C245.472 425.226 245.6 423.554 246.194 422.024C246.789 420.494 247.824 419.175 249.168 418.233C250.512 417.291 252.106 416.768 253.747 416.731C255.388 416.694 257.003 417.144 258.389 418.025C259.774 418.906 260.867 420.177 261.53 421.679C262.193 423.181 262.396 424.845 262.113 426.462C261.926 427.541 261.527 428.573 260.94 429.497C260.352 430.422 259.587 431.22 258.689 431.847C257.791 432.475 256.777 432.918 255.707 433.151C254.637 433.384 253.531 433.404 252.453 433.207H252.488Z" fill="#2CA2DD"></path>
  <path d="M272.139 187.368C271.399 187.13 270.604 187.117 269.856 187.33C269.108 187.543 268.439 187.972 267.935 188.565C267.431 189.157 267.114 189.886 267.023 190.659C266.933 191.431 267.073 192.213 267.427 192.906C267.781 193.599 268.332 194.172 269.011 194.552C269.69 194.932 270.466 195.102 271.242 195.041C272.017 194.98 272.758 194.691 273.369 194.21C273.98 193.729 274.435 193.077 274.677 192.338C274.838 191.845 274.9 191.325 274.859 190.808C274.818 190.291 274.676 189.788 274.44 189.326C274.205 188.864 273.88 188.454 273.485 188.118C273.09 187.782 272.633 187.527 272.139 187.368Z" fill="#4B7A22"></path>
  <path d="M302.535 198.4L296.41 196.405C297.415 191.571 297.018 186.551 295.264 181.935L301.03 178.995C301.363 178.826 301.66 178.593 301.903 178.308C302.146 178.024 302.33 177.695 302.446 177.34C302.562 176.984 302.607 176.61 302.578 176.237C302.549 175.864 302.446 175.501 302.277 175.168C302.107 174.835 301.874 174.538 301.59 174.295C301.306 174.052 300.977 173.868 300.621 173.752C300.266 173.636 299.891 173.591 299.518 173.62C299.146 173.65 298.782 173.752 298.449 173.921L292.674 176.861C289.971 172.73 286.143 169.457 281.641 167.43L283.645 161.305C283.79 160.943 283.859 160.554 283.847 160.163C283.836 159.773 283.744 159.388 283.578 159.035C283.412 158.681 283.175 158.365 282.882 158.107C282.588 157.849 282.245 157.653 281.873 157.533C281.501 157.413 281.109 157.371 280.72 157.408C280.331 157.446 279.954 157.564 279.612 157.753C279.27 157.943 278.971 158.201 278.733 158.511C278.495 158.821 278.324 159.177 278.229 159.556L276.225 165.68C271.394 164.675 266.376 165.072 261.763 166.826L258.814 161.052C258.466 160.379 257.865 159.872 257.143 159.642C256.421 159.412 255.637 159.479 254.964 159.827C254.291 160.175 253.784 160.776 253.554 161.498C253.325 162.22 253.391 163.003 253.739 163.676L256.679 169.442C252.55 172.148 249.278 175.975 247.247 180.474L241.123 178.471C240.413 178.273 239.655 178.358 239.006 178.707C238.358 179.056 237.87 179.642 237.644 180.343C237.418 181.043 237.471 181.804 237.794 182.467C238.116 183.129 238.682 183.64 239.373 183.895L245.497 185.898C244.497 190.73 244.895 195.746 246.644 200.36L240.886 203.256C240.213 203.598 239.704 204.193 239.47 204.911C239.236 205.629 239.297 206.41 239.64 207.083C239.982 207.756 240.577 208.266 241.295 208.499C242.013 208.733 242.795 208.672 243.468 208.33L249.242 205.39C251.946 209.521 255.774 212.794 260.275 214.822L258.272 220.946C258.127 221.309 258.058 221.697 258.069 222.088C258.081 222.479 258.172 222.863 258.338 223.216C258.505 223.57 258.742 223.886 259.035 224.144C259.328 224.403 259.671 224.598 260.043 224.718C260.415 224.838 260.808 224.881 261.197 224.843C261.586 224.805 261.963 224.687 262.304 224.498C262.646 224.308 262.945 224.05 263.183 223.74C263.421 223.43 263.593 223.075 263.687 222.695L265.691 216.571C270.523 217.576 275.541 217.179 280.154 215.425L283.094 221.199C283.266 221.533 283.502 221.83 283.789 222.072C284.076 222.315 284.408 222.498 284.766 222.612C285.124 222.726 285.501 222.769 285.875 222.737C286.25 222.706 286.614 222.601 286.948 222.429C287.282 222.256 287.578 222.02 287.821 221.733C288.063 221.446 288.247 221.114 288.361 220.756C288.475 220.398 288.517 220.022 288.486 219.647C288.454 219.273 288.349 218.909 288.177 218.575L285.237 212.801C289.368 210.103 292.638 206.277 294.66 201.777L300.785 203.772C301.141 203.887 301.515 203.931 301.888 203.901C302.26 203.871 302.623 203.768 302.956 203.597C303.289 203.427 303.585 203.193 303.827 202.909C304.069 202.624 304.253 202.295 304.368 201.939C304.483 201.583 304.527 201.209 304.497 200.836C304.467 200.464 304.364 200.101 304.193 199.768C304.023 199.435 303.789 199.14 303.505 198.897C303.22 198.655 302.891 198.471 302.535 198.356V198.4ZM284.502 180.159C285.162 179.828 285.904 179.7 286.636 179.791C287.368 179.883 288.056 180.189 288.614 180.672C289.171 181.154 289.573 181.791 289.769 182.503C289.964 183.214 289.944 183.967 289.711 184.666C289.478 185.366 289.043 185.981 288.461 186.434C287.878 186.886 287.175 187.155 286.439 187.207C285.703 187.26 284.968 187.092 284.328 186.727C283.687 186.362 283.169 185.814 282.84 185.155C282.399 184.271 282.326 183.25 282.638 182.313C282.95 181.377 283.62 180.602 284.502 180.159ZM272.769 173.772C273.002 173.075 273.437 172.463 274.018 172.012C274.599 171.562 275.301 171.294 276.034 171.242C276.767 171.19 277.5 171.357 278.138 171.721C278.777 172.085 279.293 172.631 279.622 173.288C279.951 173.946 280.077 174.686 279.986 175.415C279.894 176.145 279.588 176.83 279.106 177.386C278.625 177.942 277.989 178.342 277.28 178.537C276.571 178.731 275.821 178.711 275.123 178.479C274.188 178.166 273.415 177.494 272.973 176.612C272.532 175.73 272.459 174.709 272.769 173.772ZM251.211 184.568C251.444 183.871 251.878 183.259 252.459 182.808C253.04 182.358 253.742 182.09 254.475 182.038C255.209 181.986 255.941 182.153 256.58 182.517C257.218 182.881 257.735 183.427 258.063 184.084C258.392 184.742 258.519 185.482 258.427 186.211C258.335 186.941 258.029 187.626 257.548 188.182C257.066 188.738 256.431 189.138 255.722 189.333C255.013 189.527 254.262 189.507 253.564 189.275C253.101 189.121 252.672 188.877 252.302 188.557C251.933 188.237 251.63 187.847 251.412 187.41C251.193 186.973 251.063 186.497 251.028 186.009C250.994 185.522 251.056 185.032 251.211 184.568ZM257.335 202.066C256.676 202.397 255.934 202.525 255.202 202.433C254.47 202.342 253.782 202.036 253.224 201.553C252.666 201.071 252.264 200.434 252.069 199.722C251.874 199.011 251.894 198.258 252.126 197.558C252.359 196.859 252.794 196.244 253.377 195.791C253.96 195.339 254.663 195.07 255.399 195.018C256.135 194.965 256.869 195.132 257.51 195.498C258.15 195.863 258.668 196.411 258.998 197.07C259.22 197.508 259.354 197.986 259.392 198.476C259.429 198.966 259.369 199.458 259.216 199.925C259.062 200.392 258.817 200.824 258.496 201.196C258.175 201.567 257.784 201.872 257.344 202.092L257.335 202.066ZM259.96 177.569C259.632 176.912 259.506 176.172 259.598 175.442C259.69 174.713 259.997 174.028 260.478 173.472C260.96 172.917 261.595 172.517 262.304 172.323C263.013 172.129 263.764 172.149 264.461 172.381C265.159 172.613 265.772 173.047 266.223 173.627C266.674 174.207 266.943 174.908 266.996 175.641C267.049 176.374 266.884 177.107 266.52 177.746C266.157 178.385 265.613 178.902 264.956 179.232C264.518 179.452 264.041 179.583 263.552 179.617C263.063 179.652 262.572 179.589 262.108 179.433C261.643 179.277 261.214 179.03 260.846 178.707C260.477 178.385 260.176 177.992 259.96 177.552V177.569ZM269.077 208.496C268.846 209.196 268.411 209.812 267.83 210.265C267.248 210.719 266.545 210.989 265.81 211.043C265.074 211.097 264.339 210.931 263.698 210.567C263.057 210.203 262.538 209.657 262.207 208.998C261.876 208.339 261.749 207.596 261.84 206.864C261.931 206.133 262.237 205.445 262.72 204.887C263.203 204.329 263.84 203.927 264.551 203.732C265.262 203.537 266.015 203.557 266.715 203.789C267.648 204.101 268.419 204.769 268.862 205.647C269.305 206.526 269.382 207.544 269.077 208.479V208.496ZM268.456 198.741C266.952 198.256 265.626 197.336 264.645 196.097C263.664 194.858 263.073 193.357 262.946 191.782C262.819 190.207 263.162 188.63 263.931 187.249C264.701 185.869 265.862 184.749 267.269 184.029C268.676 183.309 270.264 183.023 271.834 183.206C273.403 183.389 274.883 184.033 276.087 185.057C277.29 186.082 278.162 187.44 278.593 188.96C279.025 190.48 278.995 192.094 278.509 193.597C277.855 195.61 276.43 197.283 274.546 198.247C272.661 199.211 270.471 199.389 268.456 198.741ZM280.259 209.695C279.6 210.026 278.857 210.154 278.125 210.062C277.394 209.971 276.705 209.665 276.147 209.182C275.59 208.7 275.188 208.062 274.992 207.351C274.797 206.64 274.817 205.887 275.05 205.187C275.283 204.488 275.718 203.873 276.301 203.42C276.883 202.968 277.587 202.699 278.322 202.646C279.058 202.594 279.793 202.761 280.433 203.127C281.074 203.492 281.592 204.039 281.921 204.699C282.142 205.136 282.274 205.612 282.31 206.1C282.346 206.588 282.285 207.079 282.13 207.543C281.976 208.007 281.731 208.437 281.41 208.806C281.088 209.175 280.697 209.477 280.259 209.695ZM290.671 197.683C290.439 198.383 290.005 198.999 289.423 199.452C288.842 199.905 288.139 200.176 287.403 200.229C286.668 200.283 285.933 200.117 285.292 199.753C284.65 199.389 284.132 198.843 283.801 198.184C283.47 197.525 283.342 196.783 283.433 196.051C283.525 195.319 283.831 194.631 284.314 194.074C284.796 193.516 285.433 193.114 286.144 192.919C286.856 192.723 287.609 192.743 288.308 192.976C289.24 193.293 290.009 193.966 290.445 194.848C290.881 195.731 290.95 196.75 290.636 197.683H290.671Z" fill="#4B7A22"></path>
  <path d="M341.041 221.645C336.423 221.099 331.746 221.935 327.603 224.046C323.46 226.158 320.036 229.451 317.765 233.509C315.493 237.567 314.477 242.207 314.843 246.843C315.21 251.479 316.943 255.902 319.824 259.552C322.705 263.203 326.603 265.917 331.027 267.352C335.451 268.786 340.201 268.877 344.676 267.612C349.151 266.346 353.15 263.783 356.168 260.244C359.186 256.706 361.086 252.352 361.629 247.734C362.356 241.545 360.596 235.32 356.736 230.428C352.875 225.536 347.23 222.377 341.041 221.645Z" fill="#EF4136"></path>
  <path d="M390.335 246.299L381.586 245.266C381.619 240.935 381 236.623 379.749 232.476L387.877 228.976C388.465 228.739 389 228.388 389.45 227.942C389.9 227.496 390.257 226.964 390.499 226.379C390.741 225.793 390.863 225.165 390.859 224.531C390.855 223.897 390.725 223.271 390.475 222.688C390.226 222.106 389.863 221.579 389.407 221.138C388.951 220.698 388.412 220.353 387.821 220.124C387.23 219.895 386.6 219.786 385.966 219.804C385.333 219.821 384.709 219.965 384.132 220.227L375.995 223.727C373.799 219.846 371.019 216.326 367.753 213.29L373.003 206.177C373.755 205.162 374.072 203.889 373.886 202.64C373.7 201.391 373.025 200.266 372.01 199.515C370.995 198.763 369.722 198.445 368.473 198.631C367.223 198.818 366.099 199.492 365.347 200.508L360.097 207.62C356.352 205.438 352.3 203.834 348.076 202.861L349.099 194.112C349.194 193.482 349.161 192.838 349.002 192.22C348.844 191.603 348.562 191.023 348.175 190.516C347.788 190.009 347.302 189.586 346.748 189.27C346.194 188.954 345.582 188.753 344.948 188.679C344.315 188.604 343.673 188.658 343.06 188.836C342.448 189.015 341.878 189.314 341.383 189.718C340.889 190.121 340.481 190.619 340.183 191.183C339.886 191.748 339.704 192.366 339.65 193.001L338.618 201.75C334.261 201.711 329.924 202.337 325.756 203.605L322.256 195.468C321.742 194.335 320.804 193.449 319.644 192.999C318.484 192.549 317.193 192.571 316.049 193.06C314.905 193.55 313.998 194.468 313.523 195.618C313.048 196.768 313.042 198.058 313.507 199.213L317.006 207.349C313.125 209.548 309.604 212.331 306.568 215.599L299.455 210.35C298.438 209.714 297.219 209.485 296.04 209.709C294.862 209.933 293.812 210.594 293.099 211.559C292.387 212.524 292.066 213.723 292.2 214.915C292.333 216.107 292.912 217.204 293.82 217.988L300.934 223.237C298.75 226.98 297.149 231.033 296.183 235.258L287.39 234.225C286.759 234.131 286.115 234.164 285.498 234.322C284.88 234.481 284.3 234.763 283.793 235.15C283.286 235.537 282.862 236.022 282.547 236.576C282.231 237.13 282.03 237.743 281.955 238.376C281.881 239.009 281.935 239.651 282.113 240.264C282.292 240.876 282.591 241.446 282.995 241.941C283.398 242.435 283.896 242.843 284.461 243.141C285.025 243.438 285.643 243.62 286.278 243.674L295.072 244.706C295.025 249.043 295.636 253.361 296.883 257.514L288.754 261.014C288.159 261.244 287.615 261.592 287.157 262.037C286.698 262.482 286.334 263.015 286.086 263.603C285.837 264.192 285.71 264.825 285.711 265.464C285.713 266.102 285.843 266.734 286.094 267.322C286.345 267.909 286.711 268.44 287.172 268.883C287.632 269.326 288.177 269.672 288.774 269.9C289.371 270.127 290.008 270.233 290.646 270.209C291.285 270.186 291.912 270.034 292.491 269.763L300.627 266.263C302.824 270.144 305.607 273.661 308.878 276.692L303.629 283.813C302.926 284.83 302.647 286.079 302.849 287.298C303.051 288.517 303.719 289.609 304.712 290.344C305.705 291.079 306.945 291.399 308.17 291.237C309.395 291.074 310.508 290.442 311.276 289.474L316.525 282.361C320.28 284.544 324.346 286.143 328.582 287.103L327.549 295.851C327.402 297.106 327.759 298.367 328.542 299.358C329.324 300.349 330.469 300.988 331.723 301.136C332.977 301.283 334.239 300.926 335.23 300.144C336.221 299.361 336.86 298.217 337.008 296.963L338.005 288.223C342.34 288.26 346.656 287.64 350.806 286.385L354.305 294.513C354.542 295.101 354.894 295.636 355.34 296.086C355.786 296.536 356.317 296.892 356.903 297.134C357.489 297.376 358.117 297.499 358.751 297.495C359.384 297.491 360.011 297.361 360.594 297.111C361.176 296.862 361.703 296.499 362.144 296.043C362.584 295.587 362.929 295.048 363.158 294.457C363.387 293.867 363.496 293.236 363.479 292.603C363.461 291.969 363.317 291.345 363.055 290.768L359.555 282.632C363.437 280.438 366.956 277.655 369.984 274.382L377.106 279.631C378.123 280.334 379.372 280.613 380.591 280.411C381.81 280.209 382.902 279.54 383.638 278.547C384.373 277.555 384.693 276.315 384.53 275.09C384.368 273.865 383.736 272.752 382.767 271.985L375.654 266.736C377.846 262.999 379.46 258.952 380.44 254.732L389.189 255.756C389.82 255.851 390.464 255.818 391.081 255.659C391.699 255.5 392.279 255.219 392.786 254.832C393.293 254.444 393.716 253.959 394.032 253.405C394.348 252.851 394.549 252.239 394.623 251.605C394.698 250.972 394.644 250.33 394.466 249.717C394.287 249.105 393.988 248.535 393.584 248.041C393.181 247.546 392.682 247.138 392.118 246.841C391.554 246.543 390.936 246.361 390.3 246.307L390.335 246.299ZM334.339 279.106C327.591 278.316 321.229 275.543 316.058 271.137C310.886 266.731 307.137 260.89 305.286 254.354C303.434 247.818 303.562 240.879 305.654 234.416C307.746 227.952 311.708 222.254 317.039 218.042C322.369 213.83 328.829 211.294 335.602 210.753C342.375 210.213 349.155 211.693 355.087 215.006C361.018 218.319 365.834 223.316 368.925 229.366C372.016 235.415 373.243 242.246 372.452 248.993C371.925 253.475 370.521 257.809 368.319 261.747C366.118 265.686 363.162 269.153 359.62 271.949C356.079 274.745 352.021 276.817 347.678 278.045C343.336 279.273 338.795 279.634 334.313 279.106H334.339Z" fill="#EF4136"></path>
  <path d="M298.632 288.303L292.884 287.944C292.884 286.019 292.735 284.13 292.542 282.249L298.212 281.208C298.894 281.082 299.544 280.823 300.126 280.446C300.708 280.069 301.21 279.581 301.603 279.009C301.997 278.438 302.273 277.795 302.418 277.117C302.563 276.439 302.573 275.739 302.447 275.057C302.321 274.375 302.062 273.725 301.685 273.143C301.308 272.561 300.82 272.059 300.248 271.666C299.677 271.273 299.034 270.996 298.356 270.851C297.678 270.707 296.978 270.697 296.296 270.823L290.653 271.864C289.94 269.225 289.063 266.633 288.028 264.104L293.146 261.54C294.397 260.912 295.347 259.812 295.786 258.483C296.226 257.154 296.12 255.705 295.491 254.454C294.862 253.203 293.762 252.254 292.433 251.814C291.104 251.374 289.655 251.48 288.404 252.109L283.277 254.681C282.183 252.888 281.002 251.182 279.777 249.493L284.152 245.688C285.204 244.76 285.845 243.451 285.932 242.051C286.02 240.651 285.548 239.273 284.62 238.221C283.692 237.168 282.383 236.528 280.983 236.44C279.582 236.352 278.204 236.824 277.152 237.753L272.777 241.558C271.378 240.205 269.919 238.913 268.403 237.683L271.675 232.932C272.47 231.78 272.774 230.359 272.522 228.983C272.269 227.606 271.48 226.387 270.328 225.592C269.175 224.797 267.755 224.493 266.378 224.745C265.001 224.998 263.782 225.787 262.987 226.939L259.714 231.681C257.611 230.468 255.444 229.37 253.222 228.391L255.104 222.95C255.562 221.627 255.476 220.177 254.865 218.917C254.254 217.658 253.167 216.693 251.844 216.235C250.522 215.777 249.071 215.863 247.812 216.474C246.552 217.085 245.587 218.171 245.129 219.494L243.248 224.936C241.131 224.393 238.978 223.93 236.791 223.588L237.211 217.867C237.263 217.177 237.178 216.485 236.962 215.828C236.746 215.171 236.403 214.564 235.952 214.04C235.501 213.516 234.951 213.086 234.334 212.774C233.717 212.462 233.044 212.275 232.355 212.224C231.666 212.172 230.973 212.257 230.316 212.473C229.659 212.689 229.052 213.032 228.528 213.483C228.004 213.934 227.573 214.483 227.262 215.1C226.95 215.718 226.763 216.39 226.712 217.079L226.283 222.818C223.65 222.835 221.021 223.007 218.408 223.335L217.262 217.7C217.121 217.021 216.848 216.377 216.458 215.803C216.069 215.23 215.569 214.739 214.99 214.358C214.41 213.978 213.761 213.715 213.08 213.585C212.399 213.455 211.699 213.461 211.019 213.602C210.34 213.742 209.696 214.015 209.122 214.405C208.549 214.795 208.058 215.294 207.677 215.874C207.296 216.454 207.034 217.102 206.904 217.784C206.774 218.465 206.78 219.165 206.92 219.844L208.093 225.478C206.229 226.02 204.409 226.65 202.607 227.35L200.096 222.171C199.484 220.912 198.398 219.948 197.075 219.49C195.753 219.032 194.303 219.119 193.044 219.73C191.785 220.342 190.82 221.428 190.363 222.75C189.905 224.073 189.991 225.523 190.603 226.782L193.114 231.97C190.999 233.206 188.954 234.558 186.989 236.02L183.174 231.69C182.246 230.639 180.938 229.999 179.539 229.912C178.139 229.825 176.762 230.298 175.711 231.226C174.66 232.154 174.021 233.462 173.934 234.861C173.847 236.261 174.319 237.638 175.247 238.689L179.062 243.019C177.548 244.585 176.096 246.221 174.687 247.936L169.91 244.734C169.336 244.349 168.691 244.08 168.013 243.944C167.334 243.808 166.636 243.806 165.957 243.94C165.278 244.073 164.632 244.339 164.056 244.723C163.48 245.106 162.986 245.599 162.6 246.173C162.215 246.748 161.946 247.392 161.81 248.071C161.673 248.749 161.672 249.447 161.806 250.126C161.939 250.805 162.205 251.451 162.589 252.027C162.972 252.603 163.465 253.097 164.039 253.483L168.799 256.676C167.767 258.505 166.839 260.394 165.982 262.328L160.566 260.447C159.244 259.983 157.793 260.063 156.53 260.669C155.267 261.275 154.297 262.358 153.833 263.679C153.369 265.001 153.449 266.453 154.055 267.715C154.662 268.978 155.745 269.948 157.066 270.412L162.508 272.31C161.875 274.703 161.382 277.13 161.03 279.58L155.29 279.213C154.601 279.169 153.909 279.262 153.256 279.485C152.602 279.709 151.999 280.059 151.48 280.515C150.434 281.437 149.796 282.738 149.708 284.13C149.62 285.522 150.088 286.892 151.01 287.939C151.932 288.986 153.233 289.623 154.625 289.711L160.373 290.079C160.373 291.995 160.522 293.893 160.715 295.766L155.141 296.842C154.459 296.966 153.809 297.224 153.226 297.6C152.644 297.976 152.141 298.463 151.747 299.034C150.952 300.185 150.646 301.606 150.898 302.983C151.149 304.36 151.938 305.581 153.09 306.377C154.242 307.173 155.663 307.478 157.04 307.226L162.683 306.185C163.394 308.825 164.271 311.416 165.308 313.945L160.19 316.518C158.939 317.146 157.989 318.246 157.549 319.575C157.11 320.904 157.216 322.353 157.845 323.604C158.474 324.855 159.574 325.804 160.903 326.244C162.232 326.684 163.681 326.577 164.932 325.949L170.059 323.377C171.153 325.126 172.334 326.876 173.559 328.565L169.184 332.362C168.662 332.821 168.236 333.379 167.93 334.003C167.624 334.627 167.444 335.306 167.4 335.999C167.356 336.693 167.45 337.389 167.675 338.047C167.9 338.704 168.252 339.311 168.712 339.833C169.171 340.355 169.729 340.781 170.353 341.087C170.977 341.393 171.656 341.573 172.35 341.617C173.044 341.66 173.739 341.567 174.397 341.342C175.055 341.117 175.662 340.765 176.184 340.305L180.558 336.5C181.949 337.856 183.411 339.124 184.933 340.375L181.661 345.126C180.867 346.279 180.564 347.7 180.818 349.077C181.073 350.453 181.864 351.673 183.017 352.466C184.17 353.26 185.591 353.563 186.968 353.308C188.345 353.054 189.564 352.263 190.358 351.11L193.621 346.368C195.725 347.586 197.895 348.684 200.122 349.658L198.232 355.1C197.774 356.422 197.86 357.873 198.471 359.132C199.082 360.391 200.169 361.356 201.491 361.814C202.814 362.272 204.265 362.187 205.524 361.575C206.783 360.964 207.748 359.878 208.207 358.555L210.096 353.122C212.222 353.677 214.374 354.123 216.545 354.461L216.125 360.191C216.074 360.881 216.159 361.573 216.375 362.23C216.592 362.886 216.936 363.494 217.387 364.017C217.838 364.541 218.388 364.97 219.006 365.281C219.623 365.592 220.296 365.779 220.985 365.83C221.674 365.881 222.367 365.796 223.024 365.579C223.68 365.363 224.288 365.019 224.811 364.568C225.335 364.116 225.764 363.566 226.076 362.949C226.387 362.332 226.573 361.659 226.624 360.97L227.053 355.231C229.686 355.221 232.315 355.052 234.927 354.723L236.1 360.358C236.384 361.729 237.201 362.931 238.372 363.7C239.543 364.468 240.971 364.741 242.342 364.456C243.714 364.172 244.916 363.355 245.685 362.184C246.454 361.013 246.726 359.585 246.442 358.214L245.26 352.58C247.124 352.037 248.953 351.399 250.746 350.699L253.257 355.887C253.869 357.147 254.956 358.112 256.279 358.571C257.602 359.029 259.054 358.944 260.314 358.332C261.574 357.721 262.539 356.634 262.998 355.311C263.457 353.987 263.371 352.536 262.759 351.276L260.239 346.088C262.354 344.849 264.399 343.494 266.364 342.029L270.179 346.403C270.638 346.924 271.196 347.349 271.82 347.654C272.444 347.959 273.121 348.138 273.814 348.181C274.507 348.224 275.202 348.13 275.859 347.904C276.516 347.679 277.122 347.327 277.642 346.867C278.163 346.407 278.587 345.85 278.892 345.226C279.197 344.602 279.377 343.925 279.42 343.232C279.463 342.539 279.369 341.844 279.143 341.187C278.918 340.531 278.565 339.925 278.106 339.404L274.291 335.074C275.805 333.499 277.257 331.872 278.622 330.157L283.399 333.359C284.559 334.137 285.981 334.423 287.352 334.153C288.723 333.883 289.931 333.08 290.709 331.92C291.488 330.76 291.774 329.338 291.504 327.967C291.234 326.596 290.43 325.389 289.27 324.61L284.51 321.426C285.543 319.588 286.482 317.702 287.328 315.765L292.744 317.655C294.066 318.119 295.519 318.039 296.783 317.432C298.046 316.825 299.017 315.74 299.481 314.418C299.945 313.095 299.864 311.643 299.257 310.379C298.65 309.116 297.566 308.145 296.243 307.681L290.757 305.748C291.382 303.354 291.872 300.926 292.227 298.478L297.967 298.845C299.365 298.933 300.741 298.462 301.792 297.536C302.843 296.61 303.483 295.304 303.571 293.906C303.659 292.508 303.188 291.133 302.262 290.082C301.336 289.031 300.03 288.391 298.632 288.303ZM236.205 232.232C244.26 233.581 251.936 236.628 258.724 241.169C265.512 245.711 271.257 251.644 275.577 258.575L252.654 270.097C248.18 263.98 241.687 259.642 234.324 257.848L236.205 232.232ZM225.705 231.471L223.798 257.044C215.967 257.729 208.659 261.266 203.263 266.982L181.941 252.704C187.233 246.189 193.889 240.912 201.439 237.244C208.989 233.576 217.251 231.605 225.644 231.471H225.705ZM173.095 310.043C170.669 303.861 169.337 297.304 169.158 290.665L169.823 280.123C170.833 273.599 172.968 267.3 176.131 261.505L197.453 275.792C196.584 277.705 195.91 279.701 195.441 281.75L194.767 292.292C194.982 294.408 195.407 296.498 196.036 298.53L173.095 310.043ZM217.192 345.826C209.136 344.475 201.46 341.427 194.672 336.884C187.884 332.341 182.139 326.407 177.82 319.475L200.752 307.961C205.222 314.075 211.707 318.413 219.065 320.21L217.192 345.826ZM226.554 303.386C223.715 303.354 220.948 302.482 218.605 300.878C216.261 299.275 214.446 297.013 213.388 294.378C212.33 291.743 212.078 288.853 212.662 286.075C213.247 283.296 214.642 280.753 216.672 278.767C218.702 276.782 221.275 275.443 224.066 274.919C226.857 274.396 229.74 274.712 232.352 275.827C234.963 276.942 237.185 278.807 238.737 281.185C240.289 283.563 241.1 286.347 241.069 289.186C241.048 291.077 240.653 292.944 239.908 294.682C239.163 296.419 238.083 297.992 236.729 299.312C235.375 300.631 233.773 301.67 232.017 302.369C230.26 303.068 228.383 303.413 226.493 303.386H226.554ZM227.657 346.596L229.564 321.023C237.377 320.319 244.66 316.77 250.029 311.05L271.342 325.328C266.058 331.85 259.407 337.134 251.86 340.809C244.312 344.483 236.05 346.459 227.657 346.596ZM283.539 297.944C282.53 304.468 280.396 310.767 277.231 316.561L255.908 302.283C256.776 300.365 257.453 298.367 257.93 296.317L258.595 285.818C258.38 283.702 257.956 281.612 257.326 279.58L280.258 268.006C282.68 274.193 284.012 280.752 284.195 287.393L283.539 297.944Z" fill="white"></path>
  <path d="M226.73 281.925C225.324 281.904 223.943 282.301 222.763 283.065C221.583 283.83 220.656 284.927 220.1 286.219C219.544 287.51 219.384 288.938 219.64 290.32C219.895 291.703 220.556 292.979 221.537 293.986C222.519 294.993 223.777 295.686 225.152 295.977C226.528 296.269 227.959 296.146 229.265 295.623C230.57 295.101 231.692 294.203 232.486 293.043C233.281 291.883 233.714 290.513 233.73 289.107C233.751 287.228 233.026 285.416 231.714 284.07C230.402 282.724 228.61 281.952 226.73 281.925Z" fill="white"></path>
  <path d="M300.627 337.732C299.425 337.58 298.204 337.789 297.12 338.331C296.036 338.873 295.137 339.725 294.537 340.778C293.937 341.831 293.664 343.039 293.751 344.248C293.838 345.457 294.282 346.613 295.026 347.569C295.77 348.526 296.782 349.24 297.933 349.621C299.083 350.003 300.321 350.034 301.49 349.711C302.658 349.389 303.705 348.727 304.496 347.809C305.288 346.891 305.79 345.759 305.938 344.556C306.136 342.948 305.688 341.326 304.693 340.047C303.697 338.768 302.235 337.936 300.627 337.732Z" fill="#58595B"></path>
  <path d="M339.371 236.536C337.698 236.324 336 236.613 334.491 237.366C332.983 238.119 331.732 239.303 330.896 240.768C330.061 242.232 329.679 243.912 329.798 245.594C329.918 247.275 330.534 248.884 331.568 250.216C332.602 251.547 334.008 252.542 335.608 253.075C337.207 253.607 338.929 253.653 340.555 253.207C342.181 252.76 343.638 251.842 344.742 250.567C345.845 249.292 346.546 247.719 346.755 246.046C347.032 243.806 346.411 241.548 345.027 239.766C343.643 237.983 341.609 236.822 339.371 236.536Z" fill="#FFCF21"></path>
  <path d="M356.93 346.595L350.552 345.799C350.704 342.078 350.443 338.352 349.773 334.688L355.959 333C356.564 332.901 357.142 332.676 357.655 332.339C358.168 332.003 358.604 331.562 358.936 331.046C359.267 330.529 359.486 329.949 359.579 329.343C359.671 328.736 359.635 328.117 359.473 327.526C359.311 326.934 359.026 326.383 358.637 325.909C358.248 325.435 357.763 325.047 357.215 324.772C356.667 324.497 356.067 324.341 355.454 324.313C354.841 324.285 354.229 324.386 353.658 324.61L347.472 326.307C346.168 322.778 344.478 319.404 342.432 316.246L347.507 312.309C348.026 311.984 348.471 311.554 348.814 311.047C349.156 310.539 349.388 309.966 349.495 309.363C349.602 308.76 349.58 308.142 349.433 307.548C349.286 306.953 349.015 306.397 348.639 305.914C348.263 305.431 347.79 305.032 347.25 304.743C346.71 304.454 346.116 304.282 345.505 304.238C344.895 304.193 344.281 304.277 343.705 304.485C343.129 304.692 342.603 305.018 342.161 305.441L337.13 309.352C334.606 306.616 331.786 304.169 328.722 302.056L331.898 296.474C332.329 295.484 332.378 294.371 332.038 293.347C331.697 292.323 330.989 291.461 330.051 290.927C329.114 290.393 328.012 290.224 326.957 290.454C325.902 290.683 324.97 291.294 324.339 292.169L321.162 297.734C317.746 296.173 314.165 295 310.488 294.234L311.284 287.856C311.299 286.781 310.916 285.737 310.21 284.926C309.504 284.115 308.523 283.592 307.456 283.458C306.389 283.323 305.309 283.587 304.424 284.198C303.539 284.81 302.91 285.726 302.657 286.771L301.852 293.149C298.134 292.997 294.41 293.258 290.749 293.928L289.008 287.716C288.911 287.11 288.688 286.53 288.352 286.016C288.016 285.501 287.576 285.063 287.06 284.73C286.543 284.397 285.963 284.177 285.355 284.083C284.748 283.99 284.128 284.025 283.535 284.187C282.943 284.349 282.391 284.634 281.916 285.023C281.44 285.412 281.053 285.897 280.777 286.447C280.502 286.996 280.346 287.597 280.318 288.211C280.29 288.824 280.393 289.437 280.618 290.008L282.315 296.194C278.786 297.498 275.411 299.188 272.253 301.233L268.316 296.168C267.994 295.645 267.565 295.195 267.057 294.849C266.55 294.503 265.975 294.268 265.37 294.158C264.766 294.049 264.145 294.068 263.548 294.215C262.952 294.361 262.392 294.632 261.907 295.009C261.422 295.386 261.022 295.861 260.733 296.402C260.443 296.944 260.271 297.541 260.228 298.154C260.184 298.767 260.271 299.382 260.481 299.959C260.691 300.536 261.02 301.063 261.448 301.504L265.385 306.579C262.652 309.103 260.208 311.923 258.097 314.986L252.523 311.802C252.025 311.445 251.458 311.198 250.858 311.075C250.259 310.951 249.64 310.955 249.042 311.086C248.444 311.217 247.88 311.472 247.387 311.835C246.893 312.198 246.482 312.66 246.178 313.191C245.875 313.723 245.686 314.313 245.625 314.922C245.564 315.531 245.631 316.146 245.823 316.728C246.014 317.309 246.325 317.844 246.737 318.297C247.148 318.751 247.65 319.113 248.21 319.361L253.774 322.536C252.215 325.953 251.041 329.533 250.275 333.21L243.896 332.414C243.297 332.269 242.675 332.253 242.069 332.365C241.463 332.478 240.888 332.717 240.382 333.068C239.875 333.418 239.448 333.871 239.128 334.398C238.809 334.925 238.605 335.513 238.528 336.124C238.452 336.736 238.506 337.356 238.686 337.945C238.866 338.534 239.169 339.079 239.574 339.543C239.979 340.007 240.478 340.38 241.037 340.638C241.596 340.896 242.204 341.033 242.82 341.04L249.198 341.845C249.043 345.563 249.301 349.286 249.968 352.947L243.782 354.644C243.173 354.738 242.59 354.96 242.073 355.296C241.555 355.631 241.114 356.072 240.779 356.589C240.444 357.107 240.222 357.689 240.127 358.299C240.033 358.908 240.069 359.531 240.232 360.125C240.395 360.72 240.683 361.273 241.075 361.749C241.467 362.225 241.955 362.613 242.508 362.887C243.06 363.16 243.665 363.314 244.281 363.338C244.897 363.362 245.511 363.256 246.084 363.026L252.278 361.337C253.579 364.863 255.266 368.234 257.309 371.389L252.261 375.335C251.738 375.657 251.288 376.086 250.942 376.594C250.596 377.101 250.36 377.676 250.251 378.28C250.142 378.885 250.161 379.506 250.307 380.102C250.454 380.699 250.725 381.258 251.102 381.743C251.479 382.228 251.953 382.628 252.495 382.918C253.037 383.207 253.634 383.379 254.247 383.422C254.86 383.466 255.475 383.38 256.052 383.169C256.63 382.959 257.156 382.63 257.598 382.203L262.664 378.257C265.194 380.99 268.016 383.437 271.081 385.554L267.896 391.127C267.458 392.117 267.403 393.234 267.742 394.263C268.081 395.291 268.789 396.157 269.729 396.694C270.67 397.231 271.776 397.399 272.833 397.168C273.891 396.936 274.825 396.32 275.455 395.44L278.631 389.867C282.047 391.43 285.628 392.603 289.306 393.366L288.51 399.744C288.495 400.82 288.878 401.863 289.584 402.674C290.29 403.486 291.271 404.009 292.338 404.143C293.405 404.277 294.485 404.013 295.37 403.402C296.255 402.791 296.884 401.875 297.137 400.829L297.941 394.451C301.66 394.603 305.384 394.342 309.044 393.672L310.742 399.858C310.836 400.467 311.058 401.05 311.393 401.567C311.729 402.085 312.169 402.526 312.687 402.861C313.205 403.196 313.787 403.418 314.397 403.512C315.006 403.607 315.629 403.571 316.223 403.408C316.818 403.245 317.372 402.957 317.847 402.565C318.323 402.173 318.711 401.685 318.985 401.132C319.259 400.58 319.413 399.976 319.437 399.359C319.461 398.743 319.354 398.129 319.124 397.557L317.435 391.371C320.962 390.068 324.333 388.378 327.488 386.332L331.434 391.406C332.183 392.188 333.196 392.665 334.276 392.744C335.356 392.822 336.426 392.498 337.281 391.833C338.135 391.168 338.713 390.209 338.901 389.143C339.09 388.077 338.877 386.979 338.303 386.061L334.357 380.995C337.09 378.466 339.537 375.643 341.654 372.579L347.227 375.764C348.215 376.191 349.326 376.239 350.348 375.899C351.369 375.559 352.229 374.854 352.763 373.919C353.297 372.984 353.468 371.885 353.242 370.833C353.017 369.78 352.411 368.847 351.54 368.214L345.967 365.038C347.534 361.621 348.708 358.037 349.467 354.356L355.845 355.152C356.444 355.296 357.066 355.313 357.671 355.2C358.276 355.088 358.851 354.849 359.358 354.499C359.864 354.149 360.291 353.696 360.611 353.17C360.93 352.644 361.135 352.056 361.212 351.445C361.289 350.834 361.236 350.214 361.057 349.625C360.877 349.036 360.576 348.492 360.172 348.028C359.767 347.563 359.27 347.189 358.711 346.931C358.153 346.672 357.546 346.534 356.93 346.525V346.595ZM268.01 322.099C269.034 320.6 270.48 319.439 272.164 318.763C273.849 318.086 275.696 317.924 277.472 318.297C279.249 318.669 280.875 319.561 282.145 320.858C283.415 322.155 284.272 323.799 284.607 325.583C284.942 327.367 284.741 329.21 284.028 330.88C283.316 332.549 282.125 333.97 280.605 334.962C279.085 335.955 277.305 336.474 275.489 336.455C273.674 336.436 271.906 335.879 270.407 334.855C269.412 334.174 268.561 333.305 267.902 332.296C267.243 331.287 266.789 330.158 266.566 328.973C266.344 327.789 266.357 326.572 266.604 325.393C266.852 324.213 267.329 323.094 268.01 322.099ZM277.127 364.592C275.482 365.36 273.647 365.623 271.853 365.349C270.059 365.074 268.386 364.274 267.047 363.049C265.707 361.825 264.761 360.23 264.328 358.468C263.895 356.705 263.994 354.854 264.613 353.148C265.232 351.442 266.343 349.957 267.805 348.882C269.268 347.808 271.016 347.19 272.829 347.109C274.642 347.028 276.439 347.486 277.992 348.425C279.545 349.364 280.784 350.743 281.554 352.387C282.577 354.584 282.69 357.097 281.867 359.377C281.044 361.657 279.352 363.519 277.162 364.557L277.127 364.592ZM304.617 305.599C306.418 305.825 308.111 306.581 309.482 307.769C310.853 308.958 311.842 310.526 312.322 312.276C312.802 314.026 312.752 315.879 312.179 317.601C311.607 319.323 310.536 320.837 309.103 321.95C307.67 323.064 305.94 323.728 304.129 323.858C302.319 323.988 300.511 323.579 298.934 322.682C297.356 321.785 296.08 320.441 295.266 318.818C294.453 317.196 294.138 315.37 294.363 313.569C294.509 312.366 294.891 311.204 295.488 310.149C296.085 309.095 296.885 308.169 297.841 307.425C298.798 306.681 299.892 306.133 301.061 305.814C302.23 305.495 303.45 305.41 304.652 305.564L304.617 305.599ZM295.045 382.072C293.244 381.846 291.55 381.092 290.178 379.905C288.805 378.717 287.815 377.149 287.334 375.399C286.853 373.649 286.901 371.795 287.473 370.073C288.045 368.35 289.115 366.836 290.548 365.721C291.98 364.607 293.712 363.942 295.522 363.811C297.332 363.681 299.141 364.09 300.719 364.986C302.297 365.883 303.574 367.228 304.388 368.851C305.201 370.473 305.516 372.3 305.291 374.101C304.981 376.504 303.733 378.686 301.821 380.172C299.908 381.659 297.485 382.329 295.08 382.037L295.045 382.072ZM298.405 355.187C296.162 354.905 294.052 353.964 292.343 352.483C290.634 351.002 289.403 349.048 288.804 346.868C288.206 344.687 288.267 342.378 288.981 340.233C289.694 338.087 291.028 336.202 292.813 334.814C294.598 333.426 296.755 332.599 299.011 332.436C301.266 332.274 303.519 332.784 305.485 333.901C307.45 335.019 309.04 336.694 310.054 338.716C311.068 340.737 311.459 343.013 311.179 345.257C310.795 348.255 309.239 350.979 306.852 352.833C304.465 354.687 301.44 355.521 298.44 355.152L298.405 355.187ZM322.527 323.079C324.172 322.296 326.013 322.019 327.815 322.285C329.617 322.55 331.3 323.345 332.649 324.569C333.998 325.793 334.953 327.39 335.393 329.158C335.832 330.926 335.735 332.784 335.116 334.497C334.496 336.21 333.381 337.7 331.913 338.778C330.444 339.856 328.689 340.473 326.868 340.551C325.048 340.628 323.246 340.163 321.691 339.214C320.136 338.266 318.898 336.876 318.135 335.222C317.114 333.019 317.006 330.501 317.835 328.219C318.665 325.937 320.365 324.076 322.562 323.044L322.527 323.079ZM331.644 365.58C330.615 367.072 329.166 368.225 327.482 368.895C325.797 369.565 323.952 369.721 322.179 369.343C320.406 368.966 318.784 368.072 317.519 366.774C316.254 365.476 315.401 363.832 315.068 362.051C314.736 360.269 314.938 358.428 315.651 356.761C316.363 355.095 317.553 353.676 319.07 352.684C320.588 351.693 322.365 351.173 324.178 351.19C325.99 351.207 327.757 351.761 329.256 352.781C330.254 353.459 331.109 354.327 331.771 355.336C332.433 356.345 332.89 357.475 333.115 358.66C333.34 359.846 333.329 361.064 333.083 362.246C332.837 363.427 332.36 364.548 331.679 365.545L331.644 365.58Z" fill="#58595B"></path>
  <path d="M313.316 216.327L302.935 230.412L319.557 242.662L329.938 228.576L313.316 216.327Z" fill="#EF4136"></path>
  <path d="M353.846 205.289L340.798 224.626L355.322 234.425L368.37 215.087L353.846 205.289Z" fill="#EF4136"></path>
  <path d="M354.565 245.386L344.528 259.719L362.023 271.968L372.06 257.635L354.565 245.386Z" fill="#EF4136"></path>
  <path d="M322.405 250.687L310.152 269.353L324.781 278.954L337.034 260.289L322.405 250.687Z" fill="#EF4136"></path>
  <path d="M325.213 541.999C327.269 546.915 329.877 561.517 317.164 566.058C304.451 570.598 272.594 569.627 272.594 569.627C272.594 569.627 310.138 570.327 315.265 547.755L325.213 541.999Z" fill="#9B3248"></path>
  <path d="M325.695 567.659C327.751 572.575 330.358 587.177 317.645 591.718C304.932 596.258 273.076 595.287 273.076 595.287C273.076 595.287 310.62 595.987 315.755 573.363L325.695 567.659Z" fill="#9B3248"></path>
  <path d="M325.695 592.697C327.751 597.605 330.358 612.216 317.645 616.756C304.932 621.297 273.076 620.326 273.076 620.326C273.076 620.326 310.62 621.026 315.755 598.401L325.695 592.697Z" fill="#9B3248"></path>
  <path d="M336.308 531.29C336.308 530.415 336.089 508.272 335.739 506.89C333.044 511.448 303.068 518.106 272.27 518.114C241.472 518.123 209.642 511.465 206.938 506.89C206.588 508.272 206.378 530.433 206.378 531.29C206.378 536.539 239.478 543.538 272.27 543.459C304.433 543.442 336.308 536.443 336.308 531.29Z" fill="#9C7F61"></path>
  <path opacity="0.7" d="M302.719 522.252C302.698 520.078 301.875 517.988 300.409 516.382C291.073 517.523 281.677 518.107 272.271 518.132C255.971 518.115 239.714 516.456 223.747 513.18C221.297 515.279 219.888 517.65 219.827 520.179C219.591 529.619 237.947 537.737 260.844 538.315C283.742 538.892 302.483 531.692 302.719 522.252Z" fill="#FFB699"></path>
  <path style="mix-blend-mode:overlay" d="M349.441 185.618C368.629 262.038 246.723 336.009 173.167 292.58C115.648 258.618 135.623 166.528 228.367 134.875C298.362 115.917 341.287 153.116 349.441 185.618Z" fill="url(#paint0_linear_500_1826)"></path>
  <path opacity="0.3" d="M428.553 270.945C428.554 245.583 422.419 220.598 410.672 198.12C398.924 175.643 381.913 156.341 361.09 141.86C340.267 127.38 316.25 118.152 291.087 114.963C265.925 111.774 240.365 114.719 216.587 123.547C192.809 132.375 171.52 146.823 154.536 165.659C137.552 184.496 125.378 207.161 119.051 231.721C112.724 256.281 112.433 282.006 118.203 306.703C123.972 331.4 135.631 354.335 152.184 373.55C163.707 387.382 191.461 412.141 194.654 426.664C196.92 437.014 197.699 451.615 198.521 467.083C199.545 486.33 200.709 490.705 205.11 502.463C209.222 513.408 231.9 519.252 270.731 519.392H272.122C310.943 519.252 333.621 513.408 337.742 502.463C342.117 490.713 343.307 486.348 344.331 467.083C345.153 451.615 345.932 437.014 348.207 426.664C351.392 412.141 379.145 387.382 390.668 373.55H390.458C415.085 345.043 428.609 308.615 428.553 270.945Z" stroke="#FFE6B3" stroke-width="19.98" stroke-miterlimit="10"></path>
  <path d="M271.317 122.461C299.749 122.461 327.584 130.623 351.514 145.977C375.443 161.331 394.461 183.232 406.308 209.077C418.154 234.922 422.332 263.624 418.343 291.773C414.355 319.922 402.369 346.335 383.808 367.872L378.174 374.398C376.126 376.603 373.878 378.965 371.577 381.397C354.515 399.315 342.249 412.893 339.633 424.8C337.2 435.858 336.413 450.801 335.573 466.628C334.584 485.254 333.499 488.797 329.527 499.4C329.352 499.855 324.767 510.468 272.078 510.66H270.739C218.05 510.468 213.466 499.855 213.299 499.4C209.318 488.797 208.242 485.254 207.245 466.628C206.37 450.801 205.617 435.85 203.185 424.8C200.56 412.91 188.311 399.315 171.25 381.397C167.566 377.53 164.049 373.83 161.223 370.654L158.808 367.846C140.251 346.308 128.268 319.896 124.283 291.748C120.298 263.6 124.478 234.9 136.326 209.058C148.175 183.216 167.194 161.319 191.123 145.968C215.053 130.617 242.886 122.458 271.317 122.461ZM271.317 113.712C241.213 113.711 211.741 122.352 186.404 138.608C161.067 154.863 140.929 178.05 128.383 205.414C115.837 232.777 111.411 263.166 115.63 292.971C119.849 322.776 132.537 350.743 152.185 373.55C163.708 387.381 191.461 412.14 194.654 426.663C196.92 437.013 197.699 451.615 198.522 467.083C199.545 486.33 200.709 490.704 205.11 502.462C209.222 513.407 231.901 519.251 270.731 519.391H272.122C310.943 519.251 333.622 513.407 337.743 502.462C342.117 490.713 343.307 486.347 344.331 467.083C345.153 451.615 345.932 437.013 348.207 426.663C351.392 412.14 379.145 387.381 390.668 373.55H390.458C410.108 350.746 422.798 322.781 427.021 292.977C431.243 263.174 426.819 232.784 414.276 205.421C401.733 178.057 381.597 154.869 356.262 138.612C330.926 122.355 301.456 113.713 271.352 113.712H271.317Z" fill="#FFE6B3"></path>
  <path opacity="0.7" d="M272.271 552.82C252.602 552.82 232.846 550.362 220.159 547.221C222.714 555.629 239.872 562.488 260.844 563.021C280.329 563.511 296.813 558.376 301.424 551.009C291.751 552.19 282.016 552.794 272.271 552.82Z" fill="#FFB699"></path>
  <path opacity="0.7" d="M272.271 578.961C252.523 578.961 232.679 576.477 220.01 573.327C221.961 581.98 239.416 589.127 260.844 589.67C280.81 590.177 297.635 584.771 301.756 577.107C291.974 578.316 282.127 578.935 272.271 578.961Z" fill="#FFB699"></path>
  <path opacity="0.7" d="M272.271 604.727C252.681 604.727 232.995 602.277 220.317 599.163C223.344 607.351 240.257 613.974 260.844 614.499C279.918 614.98 296.113 610.064 301.092 602.951C291.527 604.1 281.904 604.692 272.271 604.727Z" fill="#FFB699"></path>
  <path d="M334.506 554.028C333.797 551.517 332.686 547.974 331.548 544.404C329.868 545.078 328.154 545.662 326.412 546.154C327.524 551.228 327.602 556.889 324.094 560.651C330.061 558.988 333.998 557.239 334.891 555.716C334.934 555.891 334.969 556.049 335.013 556.215C334.897 555.475 334.727 554.744 334.506 554.028Z" fill="#E04C5A"></path>
  <path d="M336.142 519.531C334.707 520.135 330.078 521.281 328.11 521.832C329.221 526.898 329.3 532.558 325.791 536.32C331.758 534.658 335.074 533.8 335.975 532.278C336.019 532.453 335.765 531.535 336.308 531.517C336.255 530.957 336.177 523.547 336.142 519.531Z" fill="#E04C5A"></path>
  <path d="M334.637 580.108C333.928 577.597 332.817 574.054 331.68 570.484C330 571.158 328.285 571.742 326.544 572.234C327.655 577.308 327.734 582.969 324.225 586.722C330.192 585.069 334.129 583.319 335.022 581.797C335.022 581.972 335.101 582.129 335.144 582.295C335.029 581.555 334.859 580.824 334.637 580.108Z" fill="#E04C5A"></path>
  <path d="M206.37 604.324C207.078 601.813 208.181 598.27 209.327 594.701C211.006 595.377 212.72 595.961 214.463 596.45C213.343 601.525 213.273 607.185 216.782 610.938C210.806 609.285 206.877 607.535 205.976 606.013C205.932 606.188 205.897 606.345 205.862 606.511C205.978 605.771 206.147 605.04 206.37 604.324Z" fill="#E04C5A"></path>
  <path d="M206.545 553.652C207.28 551.027 208.444 547.335 209.634 543.634C211.385 544.35 213.172 544.972 214.989 545.498C213.834 550.747 213.755 556.696 217.412 560.624C211.183 558.875 207.079 557.064 206.143 555.48C206.091 555.655 206.056 555.821 206.021 555.996C206.137 555.203 206.312 554.419 206.545 553.652Z" fill="#E04C5A"></path>
  <path d="M206.606 519.873C208.032 520.477 212.661 521.623 214.629 522.174C213.518 527.248 213.448 532.909 216.948 536.671C210.981 535.008 207.665 534.142 206.772 532.629C206.729 532.795 206.974 531.885 206.44 531.859C206.501 531.308 206.571 523.897 206.606 519.873Z" fill="#E04C5A"></path>
  <path d="M206.37 579.417C207.078 576.906 208.181 573.362 209.327 569.793C211.005 570.484 212.719 571.083 214.463 571.586C213.343 576.652 213.273 582.312 216.782 586.074C210.806 584.412 206.877 582.662 205.976 581.14C205.932 581.315 205.897 581.481 205.862 581.648C205.976 580.892 206.145 580.147 206.37 579.417Z" fill="#E04C5A"></path>
  <path d="M335.433 609.985C335.374 608.824 335.183 607.673 334.864 606.555C332.169 611.113 302.193 617.771 271.395 617.78C240.597 617.789 208.767 611.131 206.063 606.555C205.747 607.673 205.559 608.824 205.503 609.985C205.503 615.234 238.603 622.233 271.395 622.154C303.567 622.102 335.433 615.129 335.433 609.985Z" fill="#82334D"></path>
  <path d="M335.433 584.701C335.374 583.54 335.183 582.389 334.864 581.271C332.169 585.83 302.193 592.487 271.395 592.496C240.597 592.505 208.767 585.847 206.063 581.271C205.747 582.39 205.559 583.54 205.503 584.701C205.503 589.95 238.603 596.949 271.395 596.871C303.567 596.809 335.433 589.854 335.433 584.701Z" fill="#82334D"></path>
  <path d="M335.433 559.19C335.374 558.029 335.183 556.878 334.864 555.76C332.169 560.327 302.193 566.976 271.395 566.985C240.597 566.994 208.767 560.336 206.063 555.76C205.747 556.878 205.559 558.029 205.503 559.19C205.503 564.439 238.603 571.438 271.395 571.359C303.567 571.333 335.433 564.36 335.433 559.19Z" fill="#82334D"></path>
  <path d="M272.271 529.785C297.574 529.785 325.389 524.886 336.142 520.301C336.054 515.385 335.923 510.975 335.774 510.38C333.08 514.947 303.104 521.605 272.306 521.605C241.508 521.605 209.678 514.965 206.974 510.38C206.825 510.967 206.703 515.175 206.615 519.943C216.668 524.685 245.716 529.82 272.271 529.785Z" fill="#9B3248"></path>
  <path d="M340.805 505.271C340.805 504.396 340.586 496.234 340.236 494.852C337.515 499.41 302.867 506.942 271.789 506.951C240.711 506.96 205.092 499.427 202.362 494.852C202.003 496.234 201.793 504.414 201.793 505.271C201.793 510.521 238.716 518.394 271.789 518.316C304.249 518.263 340.805 510.424 340.805 505.271Z" fill="#FFE6B3"></path>
  <path d="M340.805 509.261C340.805 508.386 340.586 500.224 340.236 498.841C337.515 503.399 302.867 510.932 271.789 510.932C240.711 510.932 205.092 503.417 202.389 498.824C202.03 500.206 201.82 508.386 201.82 509.243C201.82 514.493 238.742 522.367 271.815 522.288C304.25 522.253 340.805 514.414 340.805 509.261Z" fill="#9C7F61"></path>
  <path d="M328.171 515.928C330.236 520.845 332.834 535.446 320.121 539.987C307.408 544.527 275.552 543.556 275.552 543.556C275.552 543.556 313.096 544.256 318.232 521.632L328.171 515.928Z" fill="#9B3248"></path>
  <path d="M272.27 542.567C239.897 542.619 207.279 535.839 206.413 530.607C206.413 532.926 206.413 534.553 206.413 534.772C206.413 540.021 239.512 547.02 272.305 546.941C304.468 546.889 336.342 539.942 336.342 534.772C336.342 534.553 336.342 532.926 336.342 530.616C335.38 535.76 303.996 542.567 272.27 542.567Z" fill="#82334D"></path>
  <path d="M139.848 138.9C139.445 138.906 139.045 138.832 138.671 138.682C138.297 138.531 137.956 138.308 137.67 138.025L109.873 109.443C109.595 109.156 109.376 108.817 109.229 108.445C109.082 108.073 109.01 107.676 109.016 107.276C109.029 106.469 109.362 105.7 109.943 105.139C110.523 104.577 111.302 104.269 112.109 104.282C112.917 104.295 113.686 104.629 114.247 105.209L142.018 133.747C142.434 134.175 142.715 134.716 142.826 135.303C142.936 135.89 142.871 136.496 142.639 137.046C142.406 137.596 142.016 138.066 141.519 138.395C141.021 138.725 140.437 138.901 139.839 138.9H139.848Z" fill="#FFCF21"></path>
  <path d="M425.605 442.227C425.183 442.227 424.766 442.14 424.38 441.969C423.995 441.799 423.649 441.55 423.365 441.239L396.626 412.027C396.331 411.737 396.098 411.391 395.94 411.008C395.783 410.626 395.706 410.216 395.712 409.802C395.719 409.389 395.81 408.981 395.979 408.604C396.149 408.227 396.393 407.888 396.698 407.608C397.002 407.329 397.361 407.114 397.751 406.978C398.141 406.841 398.555 406.785 398.968 406.814C399.38 406.843 399.783 406.955 400.15 407.144C400.518 407.333 400.843 407.596 401.106 407.915L427.879 437.135C428.279 437.57 428.544 438.111 428.641 438.693C428.737 439.276 428.662 439.873 428.425 440.414C428.187 440.954 427.797 441.413 427.302 441.735C426.808 442.057 426.23 442.228 425.64 442.227H425.605Z" fill="#FFCF21"></path>
  <path d="M89.3635 224.611C89.0822 224.608 88.8025 224.567 88.5323 224.488L50.3935 213.701C50.0098 213.592 49.6513 213.408 49.3385 213.161C49.0257 212.913 48.7648 212.606 48.5706 212.258C48.3764 211.909 48.2528 211.526 48.2068 211.13C48.1608 210.733 48.1933 210.332 48.3024 209.948C48.4116 209.564 48.5953 209.206 48.843 208.893C49.0907 208.58 49.3975 208.319 49.7461 208.125C50.0946 207.931 50.478 207.807 50.8744 207.761C51.2707 207.715 51.6722 207.748 52.0559 207.857L90.1947 218.644C90.8997 218.85 91.5063 219.304 91.9029 219.923C92.2994 220.541 92.4592 221.282 92.3526 222.008C92.2461 222.735 91.8804 223.398 91.3231 223.877C90.7657 224.355 90.0543 224.616 89.3198 224.611H89.3635Z" fill="#FFCF21"></path>
  <path d="M488.54 344.452C488.243 344.448 487.948 344.401 487.665 344.312L449.858 332.396C449.459 332.291 449.086 332.107 448.76 331.854C448.435 331.6 448.164 331.284 447.965 330.923C447.766 330.562 447.642 330.164 447.601 329.754C447.56 329.343 447.602 328.929 447.726 328.535C447.85 328.142 448.053 327.778 448.322 327.465C448.591 327.153 448.92 326.898 449.291 326.717C449.661 326.535 450.065 326.431 450.477 326.41C450.888 326.389 451.3 326.452 451.687 326.596L489.493 338.511C490.178 338.733 490.762 339.19 491.142 339.802C491.522 340.413 491.673 341.139 491.568 341.851C491.463 342.563 491.109 343.215 490.569 343.691C490.029 344.167 489.338 344.437 488.618 344.452H488.54Z" fill="#FFCF21"></path>
  <path d="M50.9716 333.297C50.2317 333.293 49.5185 333.02 48.9653 332.528C48.412 332.037 48.0567 331.361 47.9656 330.627C47.8744 329.893 48.0538 329.15 48.4702 328.539C48.8865 327.927 49.5113 327.488 50.2279 327.304L88.6466 317.584C89.4275 317.385 90.2552 317.505 90.9476 317.917C91.64 318.329 92.1405 318.999 92.3389 319.78C92.5373 320.561 92.4174 321.388 92.0055 322.08C91.5937 322.773 90.9237 323.273 90.1428 323.472L51.724 333.2C51.478 333.262 51.2253 333.295 50.9716 333.297Z" fill="#FFCF21"></path>
  <path d="M456.263 236.422C455.518 236.414 454.802 236.134 454.249 235.634C453.697 235.134 453.348 234.448 453.267 233.708C453.186 232.967 453.38 232.223 453.811 231.615C454.242 231.008 454.881 230.58 455.607 230.411L494.305 221.829C495.081 221.684 495.883 221.847 496.542 222.282C497.201 222.717 497.664 223.39 497.836 224.161C498.007 224.931 497.873 225.738 497.46 226.412C497.048 227.085 496.391 227.572 495.626 227.769L456.928 236.361C456.708 236.402 456.486 236.423 456.263 236.422Z" fill="#FFCF21"></path>
  <path d="M110.52 435.833C109.91 435.836 109.313 435.657 108.806 435.317C108.3 434.977 107.907 434.493 107.679 433.927C107.45 433.361 107.397 432.74 107.526 432.144C107.656 431.548 107.961 431.004 108.403 430.584L136.812 402.955C137.099 402.677 137.438 402.458 137.81 402.311C138.182 402.164 138.579 402.092 138.979 402.099C139.379 402.105 139.773 402.19 140.14 402.349C140.507 402.508 140.839 402.738 141.117 403.025C141.395 403.312 141.613 403.651 141.76 404.023C141.907 404.395 141.98 404.792 141.973 405.192C141.967 405.591 141.882 405.986 141.723 406.353C141.564 406.719 141.334 407.051 141.047 407.329L112.646 434.958C112.08 435.519 111.316 435.833 110.52 435.833Z" fill="#FFCF21"></path>
  <path d="M413.014 149.459C412.41 149.449 411.823 149.259 411.327 148.914C410.831 148.569 410.449 148.084 410.23 147.522C410.01 146.959 409.963 146.343 410.094 145.754C410.226 145.164 410.529 144.627 410.967 144.21L440.181 117.378C440.78 116.858 441.559 116.592 442.351 116.637C443.143 116.683 443.886 117.035 444.422 117.62C444.958 118.205 445.245 118.976 445.221 119.769C445.197 120.562 444.864 121.314 444.293 121.866L415.07 148.646C414.511 149.165 413.777 149.455 413.014 149.459Z" fill="#FFCF21"></path>
  <path d="M331.304 95.1299C330.825 95.1317 330.353 95.0204 329.926 94.8051C329.499 94.5899 329.129 94.2768 328.845 93.8913C328.562 93.5058 328.374 93.0589 328.297 92.5869C328.219 92.115 328.254 91.6314 328.399 91.1755L340.315 53.3721C340.587 52.6391 341.13 52.0385 341.832 51.6947C342.534 51.3509 343.341 51.2901 344.086 51.5251C344.832 51.7601 345.458 52.2728 345.836 52.957C346.214 53.6412 346.314 54.4445 346.116 55.2006L334.2 93.004C334.005 93.6196 333.619 94.1574 333.099 94.5396C332.578 94.9217 331.949 95.1285 331.304 95.1299Z" fill="#FFCF21"></path>
  <path d="M232.452 89.4427C231.76 89.4395 231.09 89.2014 230.551 88.7675C230.012 88.3336 229.636 87.7295 229.486 87.0543L220.902 48.3674C220.766 47.5943 220.933 46.7983 221.369 46.1456C221.806 45.4929 222.477 45.034 223.244 44.8647C224.011 44.6953 224.813 44.8286 225.484 45.2368C226.154 45.6449 226.642 46.2963 226.843 47.055L235.418 85.742C235.505 86.131 235.515 86.5334 235.447 86.9262C235.379 87.3191 235.234 87.6946 235.02 88.0311C234.806 88.3677 234.528 88.6587 234.201 88.8874C233.875 89.1161 233.506 89.2781 233.117 89.364C232.899 89.4155 232.676 89.442 232.452 89.4427Z" fill="#FFCF21"></path>
  <path d="M275.5 72.1206H275.456C275.057 72.1149 274.664 72.0307 274.297 71.8728C273.931 71.715 273.6 71.4865 273.322 71.2005C273.044 70.9146 272.825 70.5767 272.678 70.2061C272.531 69.8356 272.458 69.4397 272.464 69.041L273.339 2.9967C273.344 2.59803 273.427 2.20429 273.585 1.83794C273.742 1.4716 273.97 1.13983 274.256 0.861587C274.541 0.583341 274.879 0.364065 275.249 0.216277C275.62 0.0684899 276.015 -0.00491478 276.414 0.000255284C276.813 0.00542534 277.207 0.0890701 277.573 0.246411C277.939 0.403751 278.271 0.631707 278.549 0.917265C278.828 1.20282 279.047 1.54039 279.195 1.91069C279.343 2.28099 279.416 2.67677 279.411 3.07544L278.536 69.1285C278.522 69.9253 278.196 70.685 277.629 71.2444C277.061 71.8038 276.297 72.1184 275.5 72.1206Z" fill="#FFCF21"></path>
  <path d="M170.681 99.2334C170.144 99.2269 169.617 99.0777 169.156 98.801C168.695 98.5243 168.315 98.1301 168.057 97.6586L136.427 40.1794C136.087 39.4773 136.03 38.6715 136.267 37.9282C136.504 37.185 137.017 36.561 137.7 36.1851C138.384 35.8091 139.186 35.7098 139.94 35.9077C140.695 36.1056 141.345 36.5855 141.756 37.2485L173.376 94.7278C173.631 95.1876 173.761 95.7057 173.756 96.2312C173.75 96.7567 173.608 97.2717 173.343 97.7258C173.079 98.18 172.701 98.5576 172.246 98.8219C171.792 99.0861 171.277 99.2279 170.751 99.2334H170.681Z" fill="#FFCF21"></path>
  <path d="M395.384 516.425C394.831 516.426 394.288 516.276 393.815 515.991C393.341 515.705 392.955 515.296 392.698 514.807L363.037 458.815C362.692 458.104 362.637 457.288 362.883 456.538C363.128 455.788 363.656 455.162 364.354 454.793C365.052 454.424 365.866 454.341 366.624 454.561C367.382 454.781 368.026 455.286 368.418 455.971L398.07 511.963C398.316 512.426 398.439 512.945 398.425 513.47C398.411 513.994 398.261 514.506 397.991 514.955C397.72 515.404 397.338 515.776 396.881 516.034C396.424 516.291 395.908 516.426 395.384 516.425Z" fill="#FFCF21"></path>
  <path d="M94.5347 175.426C93.9763 175.423 93.4293 175.269 92.9511 174.98L37.3921 141C36.7431 140.561 36.2882 139.889 36.1223 139.123C35.9563 138.357 36.092 137.557 36.5011 136.889C36.9103 136.22 37.5613 135.736 38.3188 135.535C39.0763 135.334 39.882 135.434 40.5682 135.812L96.1271 169.836C96.6899 170.184 97.1241 170.706 97.3639 171.322C97.6036 171.939 97.636 172.617 97.4561 173.254C97.2761 173.89 96.8936 174.451 96.3665 174.851C95.8394 175.251 95.1964 175.468 94.5347 175.47V175.426Z" fill="#FFCF21"></path>
  <path d="M498.224 424.336C497.66 424.336 497.108 424.175 496.632 423.873L442.385 390.225C441.742 389.781 441.294 389.107 441.134 388.342C440.974 387.577 441.114 386.78 441.526 386.116C441.937 385.452 442.588 384.971 443.344 384.773C444.101 384.576 444.904 384.676 445.588 385.055L499.834 418.711C500.394 419.061 500.825 419.584 501.062 420.201C501.298 420.818 501.328 421.494 501.146 422.129C500.965 422.764 500.581 423.323 500.054 423.721C499.527 424.119 498.885 424.335 498.224 424.336Z" fill="#FFCF21"></path>
  <path d="M67.5162 278.688H67.4287L2.95407 276.885C2.14886 276.863 1.3854 276.522 0.831612 275.937C0.277829 275.352 -0.0209058 274.571 0.0011389 273.766C0.0231836 272.961 0.364192 272.198 0.949151 271.644C1.53411 271.09 2.3151 270.792 3.12032 270.814L67.6037 272.616C68.4089 272.627 69.1765 272.958 69.7377 273.536C70.2989 274.114 70.6076 274.89 70.596 275.695C70.5844 276.501 70.2534 277.268 69.6758 277.829C69.0982 278.39 68.3214 278.699 67.5162 278.688Z" fill="#FFCF21"></path>
  <path d="M542.069 292.352H541.973L477.524 290.445C477.126 290.433 476.733 290.343 476.369 290.179C476.006 290.015 475.678 289.781 475.404 289.491C475.131 289.201 474.917 288.859 474.776 288.486C474.635 288.113 474.568 287.716 474.58 287.317C474.592 286.919 474.683 286.526 474.846 286.163C475.01 285.799 475.244 285.471 475.534 285.198C475.825 284.924 476.166 284.711 476.539 284.569C476.912 284.428 477.309 284.361 477.708 284.373L542.156 286.272C542.935 286.323 543.664 286.672 544.193 287.245C544.722 287.819 545.011 288.573 545 289.354C544.989 290.134 544.678 290.88 544.133 291.438C543.587 291.996 542.849 292.323 542.069 292.352Z" fill="#FFCF21"></path>
  <path d="M39.2025 411.091C38.5239 411.096 37.8633 410.873 37.3261 410.459C36.789 410.044 36.4063 409.461 36.2391 408.804C36.0719 408.146 36.1299 407.451 36.4038 406.83C36.6776 406.21 37.1516 405.698 37.7501 405.378L93.8952 374.898C94.6041 374.514 95.4366 374.427 96.2094 374.657C96.9822 374.886 97.6322 375.414 98.0162 376.123C98.4003 376.831 98.487 377.664 98.2572 378.437C98.0275 379.209 97.5002 379.859 96.7913 380.243L40.6461 410.715C40.2048 410.961 39.7079 411.091 39.2025 411.091Z" fill="#FFCF21"></path>
  <path d="M456.542 185.768C455.865 185.766 455.208 185.539 454.675 185.123C454.141 184.707 453.762 184.124 453.596 183.468C453.431 182.812 453.489 182.119 453.761 181.499C454.033 180.88 454.504 180.368 455.099 180.046L512.486 149.268C513.196 148.887 514.028 148.805 514.8 149.038C515.571 149.271 516.218 149.8 516.598 150.51C516.979 151.22 517.062 152.052 516.829 152.824C516.596 153.595 516.066 154.242 515.356 154.622L457.977 185.409C457.535 185.644 457.043 185.767 456.542 185.768Z" fill="#FFCF21"></path>
  <path d="M136.515 508.937C135.974 508.942 135.441 508.803 134.972 508.533C134.503 508.263 134.114 507.873 133.847 507.403C133.579 506.933 133.442 506.4 133.45 505.859C133.457 505.318 133.609 504.789 133.89 504.326L166.753 450.084C167.17 449.395 167.845 448.9 168.627 448.708C169.41 448.516 170.237 448.643 170.926 449.061C171.615 449.478 172.11 450.153 172.302 450.935C172.494 451.718 172.367 452.545 171.95 453.234L139.087 507.476C138.819 507.919 138.442 508.286 137.991 508.542C137.541 508.798 137.032 508.934 136.515 508.937Z" fill="#FFCF21"></path>
  <path d="M384.842 105.322C384.298 105.323 383.765 105.178 383.297 104.902C382.829 104.626 382.443 104.23 382.181 103.755C381.918 103.279 381.787 102.742 381.803 102.199C381.819 101.656 381.98 101.127 382.269 100.668L417.101 45.0871C417.529 44.4049 418.211 43.9207 418.996 43.7411C419.781 43.5614 420.605 43.701 421.287 44.1291C421.97 44.5572 422.454 45.2387 422.633 46.0238C422.813 46.8089 422.674 47.6332 422.245 48.3154L387.423 103.896C387.148 104.333 386.768 104.693 386.316 104.942C385.865 105.192 385.357 105.323 384.842 105.322Z" fill="#FFCF21"></path>
  <defs>
    <linearGradient id="paint0_linear_500_1826" x1="212.95" y1="111.262" x2="303.336" y2="405.041" gradientUnits="userSpaceOnUse">
      <stop stop-color="white"></stop>
      <stop offset="0.54" stop-color="#808080"></stop>
    </linearGradient>
  </defs>
</svg>
